<svg width="19" height="19" viewBox="0 0 19 19" fill="none" xmlns="http://www.w3.org/2000/svg">
<path d="M9.00195 18.0409C6.54195 18.0409 6.25195 18.0279 5.29195 17.9859C4.54332 17.9613 3.80439 17.8091 3.10695 17.5359C1.90026 17.0663 0.946094 16.1117 0.476953 14.9049C0.214259 14.2049 0.072571 13.4654 0.0579531 12.7179C0.00195312 11.7599 0.00195312 11.4459 0.00195312 9.00488C0.00195312 6.53788 0.0149531 6.24988 0.0579531 5.29488C0.0728908 4.5484 0.214574 3.80989 0.476953 3.11088C0.945584 1.90241 1.9013 0.947055 3.10995 0.478883C3.8086 0.215085 4.5473 0.0730271 5.29395 0.0588828C6.24895 0.00488281 6.56295 0.00488281 9.00195 0.00488281C11.482 0.00488281 11.767 0.0178828 12.712 0.0588828C13.4605 0.0731494 14.2012 0.215192 14.902 0.478883C16.1103 0.947586 17.0658 1.90276 17.535 3.11088C17.8021 3.82008 17.9445 4.57013 17.956 5.32788C18.012 6.28588 18.012 6.59888 18.012 9.03888C18.012 11.4789 17.998 11.7989 17.956 12.7459C17.9411 13.4941 17.799 14.2343 17.536 14.9349C17.0656 16.1426 16.11 17.0975 14.902 17.5669C14.2022 17.8291 13.4631 17.9707 12.716 17.9859C11.761 18.0409 11.448 18.0409 9.00195 18.0409ZM8.96795 1.58788C6.52195 1.58788 6.26795 1.59988 5.31295 1.64288C4.74294 1.65043 4.17843 1.75562 3.64395 1.95388C2.85471 2.25589 2.23018 2.87787 1.92495 3.66588C1.72517 4.20618 1.61996 4.77686 1.61395 5.35288C1.56095 6.32188 1.56095 6.57588 1.56095 9.00488C1.56095 11.4049 1.56995 11.6959 1.61395 12.6589C1.62291 13.2291 1.72805 13.7937 1.92495 14.3289C2.23063 15.1164 2.85505 15.7379 3.64395 16.0399C4.17807 16.2395 4.7428 16.3447 5.31295 16.3509C6.28095 16.4069 6.53595 16.4069 8.96795 16.4069C11.421 16.4069 11.675 16.3949 12.622 16.3509C13.1924 16.3439 13.7573 16.2387 14.292 16.0399C15.0764 15.7353 15.6969 15.1152 16.002 14.3309C16.2014 13.7901 16.3065 13.2192 16.313 12.6429H16.324C16.367 11.6869 16.367 11.4319 16.367 8.98888C16.367 6.54588 16.356 6.28888 16.313 5.33388C16.304 4.76433 16.1988 4.20039 16.002 3.66588C15.6976 2.88046 15.077 2.25918 14.292 1.95388C13.7574 1.75462 13.1924 1.6494 12.622 1.64288C11.655 1.58788 11.402 1.58788 8.96795 1.58788ZM9.00195 13.6239C7.13194 13.6251 5.44537 12.4996 4.72882 10.7723C4.01226 9.04506 4.40686 7.05621 5.72858 5.73334C7.05031 4.41047 9.03882 4.01415 10.7667 4.72921C12.4946 5.44428 13.6215 7.12987 13.622 8.99988C13.6192 11.5509 11.553 13.6189 9.00195 13.6239ZM9.00195 5.99788C7.3451 5.99788 6.00195 7.34103 6.00195 8.99788C6.00195 10.6547 7.3451 11.9979 9.00195 11.9979C10.6588 11.9979 12.002 10.6547 12.002 8.99788C11.9981 7.34263 10.6572 6.00173 9.00195 5.99788ZM13.802 5.28489C13.2074 5.28268 12.7269 4.79947 12.728 4.20489C12.7291 3.61031 13.2114 3.12889 13.806 3.12889C14.4005 3.12889 14.8828 3.6103 14.884 4.20488C14.8842 4.49174 14.7702 4.76691 14.5672 4.96956C14.3642 5.17222 14.0888 5.28568 13.802 5.28489Z" fill="white"/>
</svg>
