<svg width="13" height="13" viewBox="0 0 13 13" fill="none" xmlns="http://www.w3.org/2000/svg">
<path d="M7.48125 1.36876C7.49788 1.3052 7.52703 1.24559 7.56699 1.19344C7.60694 1.14129 7.65691 1.09764 7.71395 1.06504C7.77099 1.03245 7.83397 1.01156 7.89918 1.00362C7.9644 0.995667 8.03055 1.00081 8.09375 1.01875C9.02582 1.26874 9.87571 1.75956 10.5581 2.44192C11.2404 3.12429 11.7313 3.97418 11.9812 4.90625C11.9992 4.96946 12.0043 5.0356 11.9964 5.10082C11.9884 5.16604 11.9676 5.22901 11.935 5.28605C11.9024 5.3431 11.8587 5.39306 11.8066 5.43302C11.7544 5.47298 11.6948 5.50212 11.6312 5.51875C11.5886 5.53111 11.5444 5.53742 11.5 5.5375C11.3896 5.53687 11.2826 5.49974 11.1955 5.43191C11.1085 5.36408 11.0463 5.26936 11.0187 5.1625C10.8108 4.40143 10.408 3.70773 9.85016 3.14984C9.29228 2.59196 8.59857 2.18918 7.8375 1.98126C7.77338 1.96531 7.71311 1.93666 7.66026 1.89699C7.60742 1.85733 7.56307 1.80746 7.52985 1.75034C7.49663 1.69323 7.47521 1.63002 7.46686 1.56448C7.45851 1.49893 7.46341 1.43238 7.48125 1.36876ZM7.31875 3.9125C7.7418 4.02831 8.12739 4.25232 8.43754 4.56246C8.74769 4.87261 8.97169 5.2582 9.0875 5.68125C9.11411 5.78864 9.17601 5.88398 9.26327 5.95198C9.35054 6.01998 9.45812 6.0567 9.56875 6.05625C9.61115 6.05667 9.65334 6.05034 9.69375 6.0375C9.75787 6.02156 9.81814 5.99291 9.87099 5.95324C9.92383 5.91358 9.96818 5.86371 10.0014 5.80659C10.0346 5.74948 10.056 5.68627 10.0644 5.62073C10.0727 5.55518 10.0678 5.48863 10.05 5.425C9.89216 4.83095 9.58012 4.28916 9.14548 3.85452C8.71084 3.41989 8.16906 3.10785 7.575 2.95001C7.50978 2.92624 7.44032 2.91632 7.37106 2.92088C7.3018 2.92543 7.23424 2.94435 7.17269 2.97645C7.11114 3.00854 7.05694 3.05309 7.01355 3.10728C6.97017 3.16146 6.93854 3.22409 6.92068 3.29116C6.90282 3.35824 6.89912 3.4283 6.90983 3.49689C6.92053 3.56547 6.94539 3.63108 6.98284 3.68952C7.02029 3.74797 7.06949 3.79798 7.12732 3.83637C7.18516 3.87476 7.25035 3.90069 7.31875 3.9125ZM12.475 9.94376C12.3644 10.7878 11.9511 11.5629 11.312 12.1251C10.6728 12.6872 9.85121 12.9981 9 13C4.0375 13 0 8.96251 0 4.00001C0.00187647 3.14879 0.312796 2.32722 0.874952 1.68804C1.43711 1.04886 2.21225 0.63557 3.05625 0.525005C3.2714 0.501149 3.48856 0.546448 3.67624 0.654332C3.86391 0.762216 4.01234 0.927076 4.1 1.125L5.35625 4.05626C5.42141 4.20841 5.44754 4.37442 5.43226 4.53923C5.41698 4.70404 5.36078 4.86243 5.26875 5L4.23125 6.5875C4.70105 7.54094 5.47516 8.31064 6.43125 8.775L8 7.73125C8.13743 7.63861 8.29621 7.58254 8.46134 7.56832C8.62648 7.5541 8.79251 7.58222 8.94375 7.65L11.875 8.9C12.0729 8.98767 12.2378 9.1361 12.3457 9.32377C12.4536 9.51144 12.4989 9.7286 12.475 9.94376ZM11.4812 9.81876L8.55 8.56876L6.9875 9.6125C6.84373 9.70755 6.67784 9.76383 6.50591 9.77587C6.33399 9.78792 6.16187 9.75532 6.00625 9.68125C4.84184 9.118 3.89996 8.18052 3.33125 7.01875C3.25627 6.86366 3.22262 6.69183 3.23357 6.51992C3.24452 6.348 3.2997 6.18183 3.39375 6.0375L4.4375 4.45L3.18125 1.51875C2.57809 1.59629 2.02388 1.89101 1.62237 2.34774C1.22086 2.80447 0.999598 3.39189 1 4.00001C1.00166 6.12123 1.84504 8.1551 3.34497 9.65503C4.84491 11.155 6.87878 11.9983 9 12C9.60812 12.0004 10.1955 11.7791 10.6523 11.3776C11.109 10.9761 11.4037 10.4219 11.4812 9.81876Z" fill="white"/>
</svg>
