<svg width="265" height="152" viewBox="0 0 265 152" fill="none" xmlns="http://www.w3.org/2000/svg">
<mask id="mask0_935_51697" style="mask-type:luminance" maskUnits="userSpaceOnUse" x="0" y="0" width="265" height="152">
<path d="M0 4.57764e-05H264.64V151.04H0V4.57764e-05Z" fill="white"/>
<path d="M0 4.57764e-05H264.64V151.04H0V4.57764e-05Z" fill="white"/>
</mask>
<g mask="url(#mask0_935_51697)">
<path fill-rule="evenodd" clip-rule="evenodd" d="M112.716 62.42C112.884 63.6893 112.977 64.82 114.512 64.9467C114.823 64.972 115.532 65.588 115.292 65.9067C114.928 66.392 114.813 67.148 114.167 67.3627C113.188 67.6853 112.8 68.5173 113.308 69.4453C113.772 70.2933 113.676 71.4987 114.869 71.9067C114.976 71.944 115.068 72.3053 115.016 72.4667C114.893 72.848 114.519 72.64 114.253 72.7C113.929 72.7773 113.431 72.4493 113.319 73.024C113.235 73.4613 113.676 73.544 113.947 73.7027C114.377 73.956 114.729 74.2213 114.515 74.812C114.177 74.9 114.013 74.668 113.819 74.456C113.288 73.876 112.837 73.632 112.804 74.7587C112.8 74.8827 112.813 75.0893 112.755 75.1173C110.559 76.1293 111.729 78.3773 110.759 79.96C110.352 79.804 109.736 79.7267 109.108 80.0213C108.888 80.124 108.456 80.248 108.32 79.892C107.689 78.2453 106.428 78.7493 105.252 78.948C104.892 79.0107 104.444 79.5133 104.34 78.6427C104.309 78.384 103.807 78.412 103.539 78.48C102.436 78.7573 101.98 78.1053 101.863 77.2173C101.672 75.7493 100.264 74.8827 100.111 73.4013C100.039 72.7 99.7761 72.12 100.451 71.4573C101.113 70.808 101.528 70.9053 102.159 71.3707C102.453 71.588 102.744 71.332 103.024 71.0867C104.624 69.6947 106.571 68.6987 107.787 66.8667C107.919 66.668 108.149 66.4573 108.371 66.4053C109.827 66.068 110.456 64.8107 111.219 63.772C111.632 63.208 112.129 62.912 112.716 62.42Z" fill="#414958"/>
<path fill-rule="evenodd" clip-rule="evenodd" d="M117.717 77.8465C116.865 79.1145 117.2 80.2158 117.251 81.2892C117.299 82.3078 116.756 82.6958 115.776 82.3798C115.503 82.2932 115.461 82.1798 115.537 81.9438C115.627 81.6652 115.715 81.3852 115.788 81.1025C116.139 79.7518 115.931 79.4105 114.58 79.1652C114.859 77.7718 115.133 76.3892 115.135 74.9412C115.137 73.2358 117.189 71.7518 119.037 71.9878C120.499 72.1745 121.949 72.4558 123.411 72.0158C123.645 71.9452 123.851 71.9465 123.84 72.2438C123.828 72.5558 124.016 72.9812 123.603 73.1452C122.555 73.5598 121.723 74.1572 121.339 75.2852C121.257 75.5238 120.643 75.7105 121.425 75.7745C121.536 75.7838 121.68 75.8558 121.601 76.0278C121.492 76.2678 121.279 76.2492 121.068 76.2278C120.321 76.1572 119.5 76.9625 119.737 77.6252C120.033 78.4492 120.328 79.3345 120.869 79.9892C121.388 80.6185 121.576 81.1038 121.191 81.8172C121.089 82.0052 121.277 82.3518 120.876 82.3785C120.567 82.3985 120.276 82.4052 120.275 81.9585C120.273 81.8092 120.215 81.6918 119.981 81.6718C118.931 81.5852 118.913 81.5118 118.657 80.5892C118.419 79.7292 118.083 78.8972 117.717 77.8465Z" fill="#414958"/>
<path fill-rule="evenodd" clip-rule="evenodd" d="M122.727 54.9688C122.86 55.2568 123.138 55.5262 122.83 55.9102C122.12 55.5862 121.446 55.3315 121.763 54.2595C121.896 53.8102 121.767 53.2755 120.92 53.5715C120.595 53.6862 119.548 54.3995 119.568 53.0595C119.474 53.1008 119.344 53.1182 119.288 53.1902C119.127 53.4048 118.804 53.5848 119.027 53.9302C119.116 54.0675 119.29 54.1635 119.35 54.3075C119.526 54.7328 119.283 55.0595 118.976 55.2862C118.559 55.5968 118.276 55.0875 118.248 54.9208C118.158 54.3435 116.971 53.6888 118.292 53.1555C117.815 52.8808 117.971 52.2275 117.584 51.9248C116.678 51.2182 116.6 50.0275 117.432 49.2382C117.832 48.8582 117.678 48.3395 117.615 47.9235C117.474 47.0062 117.872 46.3862 118.558 45.9315C119.26 45.4648 119.767 46.3542 120.436 46.3062C120.639 46.2928 120.727 46.4915 120.686 46.6582C120.422 47.7488 121.454 49.2168 119.65 49.8835C119.071 50.0968 119.324 50.7222 120.234 51.2782C120.063 51.6315 119.22 51.4395 119.478 52.0555C119.707 52.6062 120.194 52.2955 120.66 52.2275C121.394 52.1208 122.328 51.9395 122.499 53.1662C122.56 53.6048 122.824 54.0142 122.996 54.4368C122.939 54.6302 122.756 54.7608 122.727 54.9688Z" fill="#414958"/>
<path fill-rule="evenodd" clip-rule="evenodd" d="M120.008 62.7839C119.908 61.7626 121.572 59.9866 122.264 60.4586C122.647 60.7199 122.808 61.2773 123.295 60.7906C123.911 60.1786 124.934 59.8159 124.764 58.5559C125.796 59.0799 126.523 59.7253 126.49 60.8999C126.466 61.7253 127.059 62.5773 126.347 63.3813C125.879 63.9119 125.552 64.1359 125.522 63.0253C125.036 63.5213 125.119 63.9613 125.207 64.3879C125.376 65.2239 124.819 65.3013 124.356 65.0186C123.532 64.5133 122.164 64.3133 122.72 62.7519C122.834 62.4333 122.39 62.0613 122.252 62.1439C121.55 62.5639 120.639 62.1906 120.008 62.7839Z" fill="#414958"/>
<path fill-rule="evenodd" clip-rule="evenodd" d="M128.572 70.4722C129.02 70.7428 128.616 71.2562 128.86 71.6122C129.188 71.6842 129.484 71.1602 129.858 71.5588C130.281 72.0068 129.785 72.1815 129.662 72.4935C129.381 73.2162 130.385 73.1975 130.466 73.8855C129.87 73.9548 129.36 74.2428 128.896 74.7268C128.402 75.2442 128.117 75.5628 128.853 76.0495C129.085 76.2028 129.13 76.4588 128.97 76.7135C128.793 76.9908 128.512 77.0575 128.206 77.0722C127.969 77.0828 127.806 77.0162 127.778 76.7468C127.554 74.6068 127.441 72.4788 128.425 70.4655C128.432 70.4508 128.5 70.4682 128.572 70.4722Z" fill="#414958"/>
<path fill-rule="evenodd" clip-rule="evenodd" d="M122.16 89.8472C121.904 89.2645 122.049 88.7085 122.531 88.3978C123.883 87.5298 125.301 86.7845 126.928 86.5418C127.172 86.5072 127.361 86.5578 127.443 86.7698C127.548 87.0472 127.296 87.1365 127.107 87.1965C125.293 87.7605 124.085 89.4472 122.16 89.8472Z" fill="#414958"/>
<path fill-rule="evenodd" clip-rule="evenodd" d="M122.727 54.969C122.279 54.5196 122.698 54.509 122.997 54.437C123.318 54.7076 123.706 54.6583 124.077 54.629C124.617 54.5863 125.075 54.873 125.131 55.3036C125.193 55.7703 125.633 56.485 124.754 56.7556C124.254 56.909 124.533 57.181 124.641 57.433C124.746 57.6783 124.819 57.9236 124.462 58.029C124.133 58.1263 123.855 58.053 123.778 57.6863C123.669 57.1623 123.249 56.6703 123.498 56.1076C123.865 55.277 123.377 55.0823 122.727 54.969Z" fill="#414958"/>
<path fill-rule="evenodd" clip-rule="evenodd" d="M110.572 87.6336C110.736 86.7482 110.884 86.0629 112.02 86.6402C112.551 86.9096 113.163 86.6296 113.736 86.5029C114.096 86.4242 114.491 86.3829 114.848 86.4482C115.123 86.4976 115.367 86.7576 115.338 87.0989C115.308 87.4589 114.988 87.3696 114.76 87.4216C113.395 87.7282 112.015 87.6616 110.572 87.6336Z" fill="#414958"/>
<path fill-rule="evenodd" clip-rule="evenodd" d="M133.115 79.6655C132.348 79.2042 131.587 79.3175 130.881 79.1188C130.463 79.0002 130.069 78.9895 129.745 79.3948C129.517 79.6815 129.112 80.0668 128.841 79.6522C128.671 79.3895 128.779 78.7202 129.015 78.4588C129.692 77.7015 130.668 77.9215 131.503 78.0802C132.223 78.2162 133.043 78.4828 133.115 79.6655Z" fill="#414958"/>
<path fill-rule="evenodd" clip-rule="evenodd" d="M116.361 87.1061C116.864 86.5128 119.024 86.4435 119.333 86.9955C119.548 87.3781 119.453 87.7155 118.883 87.7208C117.991 87.7301 117.232 87.2821 116.361 87.1061Z" fill="#414958"/>
<path fill-rule="evenodd" clip-rule="evenodd" d="M118.142 89.3484C117.158 89.7764 116.495 88.9324 115.668 88.9324C115.474 88.9337 115.444 88.7297 115.436 88.5524C115.423 88.2817 115.583 88.2084 115.811 88.1644C116.843 87.967 117.546 88.4284 118.142 89.3484Z" fill="#414958"/>
<path fill-rule="evenodd" clip-rule="evenodd" d="M127.775 79.0477C127.664 79.5824 127.25 79.7504 126.772 79.777C126.476 79.793 126.01 79.9517 126.026 79.413C126.039 78.9077 126.336 78.5624 126.884 78.521C127.287 78.4904 127.628 78.5837 127.775 79.0477Z" fill="#414958"/>
<path fill-rule="evenodd" clip-rule="evenodd" d="M133.167 76.9662C132.627 77.0676 132.007 77.2356 131.927 76.9129C131.779 76.3076 131.488 75.5996 132.017 74.9382C132.077 75.7662 132.587 76.3302 133.167 76.9662Z" fill="#2F2F2F"/>
<path fill-rule="evenodd" clip-rule="evenodd" d="M130.435 76.7847C130.23 77.3914 129.904 77.6327 129.258 77.4554C129.507 76.9434 129.856 76.7434 130.435 76.7847Z" fill="#4A4A4A"/>
<path fill-rule="evenodd" clip-rule="evenodd" d="M127.076 85.7448C126.462 86.0222 126.1 85.9968 125.752 85.8275C125.723 85.8142 125.74 85.5848 125.8 85.5368C126.227 85.2062 126.54 85.5115 127.076 85.7448Z" fill="#414958"/>
<path fill-rule="evenodd" clip-rule="evenodd" d="M124.545 86.4532C123.808 87.0039 123.428 86.9412 122.961 86.6266C123.398 86.2319 123.806 86.4332 124.545 86.4532Z" fill="#414958"/>
<path fill-rule="evenodd" clip-rule="evenodd" d="M121.483 73.2416C121.316 73.6363 121.226 73.9589 121.056 74.2309C120.763 74.6949 120.464 75.0363 119.931 74.3909C119.578 73.9643 119.06 73.6723 118.518 73.2416H121.483Z" fill="white"/>
<path fill-rule="evenodd" clip-rule="evenodd" d="M118.142 74.9785C117.676 74.8932 116.866 75.0785 116.875 74.4118C116.883 73.8478 117.676 74.0025 118.151 73.9732C118.643 73.9425 119.346 73.9092 119.335 74.5292C119.326 74.9958 118.626 74.9492 118.142 74.9785Z" fill="white"/>
<path fill-rule="evenodd" clip-rule="evenodd" d="M124.71 57.6961C123.47 57.6668 122.507 57.3628 121.325 57.2734C122.211 56.6788 123.919 56.9041 125.346 56.8494C125.213 53.8028 123.895 49.6441 121.959 48.0708C121.633 47.8054 121.037 47.4361 120.585 47.5428C119.634 47.7654 120.09 49.1801 119.421 49.8681C118.959 49.1094 119.598 47.6574 120.267 47.3308C122.179 47.1054 123.499 48.9881 124.287 50.5028C125.273 52.3974 125.739 54.4081 125.767 56.8494C127.617 57.1521 128.805 58.1134 130.21 58.8601C130.713 59.6614 132.418 59.8241 132.114 61.0814C131.799 61.3361 131.69 60.7654 131.586 60.6574C130.971 60.0254 130.189 59.3401 129.258 58.8601C127.891 58.1521 126.346 57.9334 124.71 57.6961Z" fill="white"/>
<path fill-rule="evenodd" clip-rule="evenodd" d="M112.546 60.5514C112.814 62.1861 113.101 63.8048 113.603 65.2061C112.795 64.5688 112.185 63.7328 111.487 62.9848C110.429 64.8514 109.557 66.9074 108.421 68.6968C107.739 68.1781 106.966 67.7528 106.41 67.1101C107.225 63.6928 109.725 61.9621 112.546 60.5514Z" fill="#EE3338"/>
<path fill-rule="evenodd" clip-rule="evenodd" d="M139.201 89.5347C140.077 88.8253 140.596 88.0333 141.845 87.8413C144.124 87.492 146.404 89.632 148.827 89.3227C149.697 89.212 151.177 88.6147 151.259 87.524C151.456 84.868 146.065 85.484 148.087 87.948C149.039 88.0907 149.175 87.4147 149.779 87.2067C149.393 89.2947 146.939 88.432 146.816 87.2067C146.591 84.948 150.247 84.38 151.365 85.9373C150.363 84.172 151.86 82.2453 153.797 83.1867C154.208 83.756 154.049 85.0693 153.163 84.9853C152.581 84.7613 153.673 84.5573 153.375 83.928C153.273 83.532 152.515 83.3613 152.104 83.612C151.164 84.2867 152.037 85.2 152.211 86.044C152.628 88.0747 151.591 89.6693 149.249 89.8507C151.588 91.384 149.609 95.1573 146.711 93.6587C146.437 93.28 146.217 92.396 146.605 91.9667C147.036 91.6547 147.837 91.7453 148.192 92.072C147.8 92.2827 146.948 92.028 147.028 92.7067C147.827 93.72 149.487 92.8547 149.565 91.9667C149.716 90.308 147.417 90.1613 145.547 89.428C143.839 88.76 142.153 87.2373 141 88.7933C143.54 88.3707 145.169 89.768 144.807 92.6013C144.579 89.4667 142.16 88.4707 139.201 89.64V89.5347Z" fill="white"/>
<path fill-rule="evenodd" clip-rule="evenodd" d="M143.749 84.2461C145.104 84.1301 145.519 85.3315 144.807 86.1501C144.429 85.9275 144.721 85.0368 144.172 84.9861C143.671 84.9421 143.656 85.3848 143.221 85.4088C143.248 87.4755 145.281 86.5741 145.865 85.6208C146.061 88.1141 141.343 87.8021 142.48 85.3035C142.744 84.7915 143.156 84.4275 143.749 84.2461Z" fill="white"/>
<path fill-rule="evenodd" clip-rule="evenodd" d="M130.316 88.3705C131.963 91.8345 123.947 93.7412 122.065 92.1772C121.839 91.9892 121.505 91.2732 121.537 91.0145C121.705 89.6638 124.203 90.2238 125.768 90.0638C127.843 89.8492 128.483 88.2332 130.316 88.3705Z" fill="white"/>
<path fill-rule="evenodd" clip-rule="evenodd" d="M116.46 100.535C118.278 100.689 120.741 100.717 122.7 100.957C123.988 101.116 125.162 101.681 125.874 101.592C127.18 101.428 127.841 99.6747 128.836 98.5254C129.488 97.7694 130.725 96.7734 131.48 96.5147C132.328 96.2267 133.629 96.4547 134.336 95.9867C134.906 95.608 135.116 94.5707 135.71 93.976C136.614 93.0707 139.721 92.052 141.317 93.448C142.697 94.656 141.813 96.8307 141.105 98.6294C139.38 99.9734 137.645 101.305 136.028 102.756C133.264 103.729 130.084 104.287 128.306 106.247C122.024 106.359 116.885 105.328 113.286 102.756C110.933 104.072 108.497 102.345 106.728 101.487C106.569 102.103 106.63 102.941 106.2 103.285C104.334 102.575 105.469 99.736 106.728 99.16C106.808 98.0747 107.273 97.3774 107.892 96.832H110.43C112.049 97.8574 113.336 99.2147 114.556 100.64H115.402C115.724 100.573 116.313 100.776 116.46 100.535Z" fill="white"/>
<path fill-rule="evenodd" clip-rule="evenodd" d="M150.518 82.1297C150.244 82.3123 150.022 82.551 149.989 82.9763C152.072 84.815 152.288 79.4003 149.672 80.9657C149.841 80.483 149.948 80.1403 149.884 79.6977C149.666 78.207 147.716 78.627 147.134 77.475C147.258 77.319 147.225 77.003 147.557 77.0523C147.972 76.991 147.826 77.4883 148.086 77.5817C148.348 75.7097 146.182 76.8697 146.816 78.1097C147.022 78.5137 147.566 78.4657 148.086 78.7443C146.428 78.8003 146.449 81.8057 147.98 81.6017C148.517 81.5297 149.328 80.2697 148.297 79.9083C148.437 80.2697 148.549 81.1137 147.98 81.0723C145.942 80.2643 148.952 77.8777 149.354 79.9083C149.834 82.3217 144.74 83.7403 146.71 86.3603C146.664 84.3977 148.428 83.391 149.884 84.1403C148.85 83.0923 147.016 83.7043 146.605 84.9857V84.2457C148.062 83.3403 148.742 81.6577 150.73 81.2843C151.346 81.4963 151.273 82.8577 150.625 82.9763C150.141 82.855 150.65 82.1603 150.518 82.1297ZM153.48 78.1097C153.169 78.7723 152.149 79.2377 151.894 79.803C152.646 79.743 153.034 78.7617 153.48 78.7443C153.276 79.7057 152.61 80.7657 152.528 81.495C154.134 80.143 155.246 74.9803 152.952 73.9857C151.776 73.475 149.868 73.7977 149.249 74.7257C147.918 76.7217 150.322 79.151 152.317 77.5817C152.388 77.2603 152.693 76.6257 152.422 76.3123C152.308 77.5657 150.848 77.807 149.778 77.2657C149.793 76.5803 149.598 76.1043 149.566 75.4657C151.338 73.0857 154.932 75.0283 153.48 78.1097ZM159.192 54.9457C152.162 55.563 146.981 60.623 145.546 66.899C142.94 67.5057 141.612 72.203 145.018 73.139C144.646 72.3763 143.546 71.787 143.432 70.6017C143.17 67.883 147.346 66.3523 148.826 68.6963C148.897 69.2257 148.729 69.5163 148.721 69.9657C150.284 68.767 148.388 66.731 146.816 66.687C147.329 60.8523 151.746 57.7057 156.288 55.9003C153.642 57.8003 150.061 60.4097 149.778 64.3603C149.637 66.3323 150.661 68.1417 150.518 70.1777C150.33 72.8683 145.913 73.3443 146.182 69.9657C146.596 69.463 147.46 69.4097 147.98 69.0137C146.812 68.175 145.437 69.463 145.336 70.495C145.197 71.9057 146.506 72.8457 147.452 73.0337C149.574 73.455 151.162 71.851 151.577 70.495C152.072 68.8723 150.936 66.463 152.422 65.8403C152.389 65.519 152.029 65.2083 152.317 64.8883C152.629 64.567 153.237 64.539 153.904 64.5723C151.814 63.367 151.17 66.2523 150.836 67.851C149.198 62.3937 152.562 59.519 155.385 57.167C157.368 55.515 159.313 54.9163 162.472 55.2643C161.437 54.775 160.348 54.8443 159.192 54.9457ZM143.432 74.1977C143.577 74.3163 143.629 74.2883 143.644 74.091C143.733 72.883 142.161 71.515 141.528 70.283C140.754 68.7777 140.381 67.403 139.836 66.1577C141.694 63.099 144.481 60.123 148.086 57.8017C151.448 55.6363 155.72 53.4043 160.249 53.4643C163.08 53.503 164.936 54.7203 165.538 56.955V58.6483H165.433C165.254 60.3097 163.393 61.723 161.73 60.975C160.645 60.4883 160.845 58.763 160.673 57.8017C158.3 57.0377 156.565 58.7377 155.701 60.1283C152.956 64.559 154.67 72.1483 155.385 77.687C155.912 81.775 155.921 85.971 154.856 89.7457C153.864 93.2577 151.961 95.8777 149.672 97.7843C147.202 99.843 144.273 100.792 139.729 101.17C139.944 100.926 140.109 100.632 140.364 100.43C143.141 99.911 144.836 95.5683 143.537 92.919C142.648 91.1017 139.482 90.4963 137.297 91.5443C138 90.9777 138.573 90.2803 139.201 89.6403C142.16 88.471 144.578 89.467 144.806 92.6017C145.169 89.7683 143.541 88.371 141 88.7937C142.153 87.2377 143.838 88.7603 145.546 89.4283C147.417 90.1603 149.716 90.3083 149.566 91.967C149.488 92.855 147.826 93.719 147.028 92.707C146.948 92.0283 147.8 92.2817 148.192 92.0723C147.837 91.7457 147.036 91.655 146.605 91.967C146.217 92.395 146.437 93.279 146.71 93.6577C149.609 95.1577 151.588 91.383 149.249 89.851C151.59 89.6697 152.628 88.075 152.21 86.0443C152.038 85.2003 151.164 84.287 152.104 83.6097C152.516 83.3603 153.273 83.531 153.376 83.9283C153.674 84.5563 152.581 84.7617 153.162 84.9857C154.049 85.0697 154.209 83.755 153.797 83.187C151.858 82.2443 150.362 84.1723 151.365 85.9377C150.246 84.379 146.592 84.9483 146.816 87.207C146.938 88.431 149.393 89.295 149.778 87.207C149.176 87.4137 149.04 88.091 148.086 87.947C146.065 85.4843 151.457 84.8683 151.26 87.5243C151.178 88.6137 149.697 89.2123 148.826 89.323C146.405 89.6323 144.125 87.491 141.845 87.8417C140.596 88.0337 140.077 88.8243 139.201 89.535C140.037 88.431 140.842 87.2977 141.105 85.6203C141.497 85.4497 142.056 85.443 142.48 85.303C141.342 87.803 146.061 88.1137 145.865 85.6203C145.281 86.5737 143.248 87.4763 143.221 85.4083C143.656 85.3857 143.67 84.9417 144.172 84.9857C144.721 85.0377 144.429 85.9283 144.806 86.1497C145.518 85.3323 145.102 84.1297 143.749 84.2457C145.321 82.8057 146.258 78.8337 145.124 76.3123C144.73 75.435 143.781 74.8043 143.432 74.1977Z" fill="#EE3338"/>
<path fill-rule="evenodd" clip-rule="evenodd" d="M140.363 100.429C141.235 98.7452 143.167 97.6945 143.221 95.4572C143.331 90.6812 136.811 91.2265 134.439 93.7652C134.847 92.9012 136.299 92.1705 137.297 91.5439C139.481 90.4972 142.647 91.1012 143.537 92.9185C144.835 95.5679 143.141 99.9105 140.363 100.429Z" fill="white"/>
<path fill-rule="evenodd" clip-rule="evenodd" d="M131.692 94.506C131.786 94.694 132.122 94.6406 132.008 95.034C130.478 96.318 128.175 99.0953 125.768 97.2566C126.443 96.838 127.304 96.6046 128.096 96.3046C127.12 96.074 125.992 96.5193 124.923 96.726C123.418 97.0193 122.058 97.3393 120.163 97.2566C116.55 97.0966 113.884 95.7646 111.912 94.0833C111.736 94.4006 111.608 94.7646 111.278 94.9286C109.627 94.9006 107.995 94.878 106.94 93.9766C105.986 93.1593 104.875 90.6926 105.036 89.2166C105.148 88.2006 105.783 87.3366 106.728 86.89C107.747 87.2473 108.303 88.066 109.268 88.4766C108.942 90.79 112.174 90.454 112.018 88.4766C111.77 88.0513 111.172 88.8246 110.431 88.582C110.187 87.5566 109.578 86.898 108.951 86.2553C109.299 83.206 110.048 79.7046 109.162 76.63C110.854 75.338 111.811 74.63 113.498 74.6193C115.746 74.6073 118.284 76.1166 121.008 75.466C123.783 74.8046 124.886 73.178 126.72 71.5526C127.854 70.5473 132.65 68.806 134.548 70.178C135.66 70.9806 136.259 73.506 138.143 74.726C139.508 75.6073 141.904 76.4633 140.259 78.6393C139.851 78.8273 139.208 78.738 138.779 78.6393C138.666 79.174 139.091 79.1726 139.202 79.4846C142.031 80.0233 141.346 77.046 142.375 75.7833C143.564 75.4793 144.387 75.8313 144.596 77.0526C145.067 79.8073 143.76 86.062 140.578 84.1406C139.752 89.7326 135.291 91.6873 131.692 94.506ZM110.96 96.0913C111.602 95.8873 112.248 95.6886 112.335 94.9286C114.072 97.0766 116.575 97.9753 120.586 98.206C121.883 98.2833 123.436 97.886 124.498 98.206C125.267 98.4393 125.568 99.7766 126.51 99.6886C125.644 101.474 123.268 99.9886 120.586 99.794C119.156 99.6913 117.7 99.7433 116.566 99.794C116.02 99.8193 115.147 100.001 114.768 99.9006C113.282 99.506 112.216 96.706 110.96 96.0913ZM135.712 93.9766C136.615 93.0713 139.722 92.0513 141.318 93.4473C142.698 94.6553 141.814 96.83 141.106 98.63C139.382 99.974 137.646 101.306 136.028 102.755C133.264 103.729 130.084 104.287 128.307 106.247C122.026 106.359 116.887 105.327 113.287 102.755C110.934 104.073 108.498 102.346 106.728 101.486C106.57 102.102 106.632 102.941 106.2 103.285C104.335 102.575 105.47 99.7366 106.728 99.1593C106.808 98.0753 107.274 97.3766 107.892 96.8313H110.431C112.051 97.858 113.336 99.214 114.556 100.641H115.403C115.724 100.574 116.314 100.775 116.46 100.534C118.279 100.69 120.742 100.717 122.7 100.958C123.99 101.115 125.163 101.682 125.875 101.591C127.18 101.427 127.842 99.6753 128.836 98.526C129.488 97.7686 130.726 96.7726 131.48 96.5153C132.328 96.226 133.631 96.4553 134.336 95.986C134.908 95.6073 135.116 94.5713 135.712 93.9766ZM104.614 83.61C103.232 82.0313 103.204 79.0966 103.027 76.3126V73.6673C103.186 70.794 103.302 67.878 105.036 66.582C105.856 68.09 106.976 69.2953 108.316 70.2833C109.11 67.902 110.682 66.302 111.383 63.8313C113.288 65.134 114.674 66.9566 116.248 68.59C116.771 67.526 117.294 66.462 117.942 65.5246C117.604 65.5406 117.163 65.7713 116.883 65.5246C116.728 65.1846 116.522 64.898 116.566 64.3593C116.207 64.154 115.526 64.2726 115.192 64.042C115.46 63.254 116.483 63.218 117.095 62.774C116.282 62.4233 115.152 62.39 114.346 62.0326C114.808 63.3673 115.368 64.606 115.298 66.4753C112.942 63.77 112.326 57.418 113.392 52.9366C114.664 51.7486 116.615 49.878 118.999 50.8206C118.52 56.9766 121.334 59.8393 123.97 62.878C122.772 63.138 122.363 62.0606 121.855 61.5046C121.156 60.742 120.232 60.158 119.528 59.3886C118.446 60.07 117.476 60.8646 116.248 61.398C116.918 61.998 118.611 61.574 119.422 62.0326C119.172 62.8406 118.158 62.8833 117.623 63.4086C118.17 63.5313 118.147 64.226 118.259 64.7833C119.11 64.0846 119.487 62.9086 119.951 61.8206C121.13 62.386 122.319 63.0673 123.547 63.6193C124.798 64.1806 125.995 64.7393 126.932 65.6286C127.682 63.734 128.363 61.7713 129.363 60.1286C130.816 61.146 131.72 62.71 132.962 63.9366C133.02 61.95 132.834 59.7206 133.491 58.3313C134.836 60.1766 135.927 62.174 137.086 64.1473C138.232 66.1006 139.39 68.1313 139.942 70.6006C137.514 70.1033 135.914 68.778 133.067 68.6966C132.664 68.6566 132.196 68.6806 131.903 68.6966C127.107 68.8486 126.075 73.582 121.22 73.9846C118.864 74.182 116.716 73.7486 114.768 73.8793C112.35 74.042 110.166 74.534 108.739 75.5726C106.363 77.302 106.215 80.402 104.614 83.61ZM119.458 50.006C120.878 48.8473 121.82 50.898 122.278 51.9846C121.616 51.518 120.758 50.1873 119.458 50.006ZM120.268 47.33C122.18 47.1046 123.499 48.9886 124.288 50.5033C125.274 52.398 125.74 54.4073 125.768 56.85C127.618 57.1513 128.807 58.114 130.211 58.8593C131.303 59.2126 132.035 59.926 132.855 60.5513C132.664 61.2433 132.567 62.0273 132.432 62.774C131.378 61.642 130.459 60.374 129.363 59.2833C129.164 59.3993 128.864 59.418 128.624 59.494C127.895 60.8806 127.319 62.4206 126.72 63.9366C124.195 63.0406 122.563 60.6913 122.172 58.014C123.018 57.906 124.056 57.994 124.711 57.6966C123.471 57.6673 122.507 57.362 121.327 57.2726C122.212 56.6793 123.919 56.9046 125.346 56.85C125.214 53.802 123.896 49.6446 121.96 48.07C121.634 47.8046 121.036 47.4353 120.586 47.542C119.635 47.7646 120.09 49.1806 119.422 49.8686C118.959 49.11 119.598 47.6566 120.268 47.33ZM137.298 91.5433C138 90.978 138.574 90.2806 139.202 89.6406V89.534C140.038 88.43 140.843 87.298 141.106 85.6206C141.498 85.45 142.056 85.4433 142.48 85.3033C142.744 84.7913 143.156 84.4273 143.75 84.246C145.322 82.806 146.259 78.834 145.124 76.3126C144.731 75.434 143.782 74.8046 143.432 74.198C139.211 69.3926 138.214 61.366 132.962 57.59C132.664 58.2113 133.046 59.5086 132.75 60.1286C130.136 55.43 128.5 44.854 121.327 44.0513C116.9 43.5566 113.535 46.7006 115.192 50.926C114.179 51.6326 112.975 51.8953 112.442 53.1473C111.586 55.15 112.618 58.2566 112.547 60.5513C112.815 62.186 113.102 63.8046 113.604 65.206C112.796 64.5686 112.187 63.7326 111.488 62.9846C110.43 64.8513 109.558 66.9073 108.422 68.6966C107.74 68.178 106.967 67.754 106.412 67.11C105.918 66.2993 105.29 65.6233 104.826 64.7833C103.488 66.9006 102.748 69.6153 102.182 72.5046V75.7833C102.523 78.8033 103.422 81.71 104.296 84.3513C104.588 85.234 105.12 86.382 105.143 87.1006C105.19 88.6193 104.028 90.0166 104.296 91.5433C104.674 93.694 107.86 95.2713 109.903 95.8806C109.075 96.146 108.144 96.3086 107.152 96.41C106.267 98.1673 105.471 100.017 104.614 101.803C104.856 102.654 105.147 103.457 105.566 104.13C106.668 104.474 108.259 104.029 107.998 103.39C109.075 103.766 109.963 104.067 111.066 104.13C111.931 104.179 112.76 103.857 113.604 103.919C115.03 104.027 116.327 105.19 117.73 105.823C119.074 106.429 120.82 107.005 122.49 107.091C123.531 107.146 124.979 106.934 126.298 106.986C126.952 107.014 127.77 107.294 128.414 107.199C129.255 107.073 130.167 106.093 131.163 105.611C134.354 104.067 137.624 103.395 139.73 101.17C139.944 100.925 140.11 100.633 140.364 100.429C141.238 98.746 143.168 97.6953 143.222 95.4566C143.332 90.682 136.812 91.226 134.442 93.7646C134.85 92.902 136.302 92.17 137.298 91.5433Z" fill="#373535"/>
<path fill-rule="evenodd" clip-rule="evenodd" d="M130.211 58.8594C131.303 59.2128 132.036 59.9261 132.855 60.5514C132.665 61.2434 132.568 62.0261 132.432 62.7741C131.377 61.6421 130.46 60.3741 129.365 59.2821C129.164 59.3994 128.867 59.4181 128.625 59.4941C127.895 60.8808 127.32 62.4194 126.72 63.9368C124.195 63.0408 122.564 60.6914 122.172 58.0141C123.017 57.9061 124.056 57.9941 124.711 57.6954C126.347 57.9328 127.892 58.1514 129.259 58.8594C130.189 59.3408 130.972 60.0261 131.587 60.6581C131.691 60.7661 131.959 61.1461 132.115 61.0808C132.419 59.8248 131.116 59.5848 130.211 58.8594Z" fill="#EE3338"/>
<path fill-rule="evenodd" clip-rule="evenodd" d="M122.277 51.9851C121.616 51.5171 120.757 50.1864 119.457 50.0051C120.877 48.8464 121.82 50.8998 122.277 51.9851Z" fill="white"/>
<path fill-rule="evenodd" clip-rule="evenodd" d="M118.152 51.3497C118.15 52.8323 118.093 54.3697 118.362 55.5803C117.56 55.5377 117.106 55.1443 116.248 55.1577C116.282 54.2657 117.809 53.9763 118.045 52.9363C117.042 52.6337 115.457 52.3537 114.344 52.5137C114.892 51.827 116.728 51.5137 118.152 51.3497Z" fill="#363535"/>
<path fill-rule="evenodd" clip-rule="evenodd" d="M136.451 63.7255C136.011 63.5375 136.558 64.1495 136.557 64.1482C137.338 66.0762 138.279 68.0802 139.095 69.7535C136.837 67.0962 130.655 67.2335 127.673 69.1202C125.338 70.5962 124.563 72.9828 121.114 73.2442C116.607 73.5868 111.661 72.4002 108.527 74.1975C107.494 74.7895 105.697 77.5295 105.249 78.6402C104.85 79.6242 104.862 80.6682 104.401 81.4962C103.947 80.1175 103.814 78.4175 103.45 76.9468C103.445 79.3508 103.765 81.4268 104.614 82.9762C105.778 80.5602 106.102 76.9082 108.422 75.3602C109.997 74.3108 112.531 73.7922 114.767 73.6682C116.721 73.5602 118.787 73.9682 121.009 73.7748C125.627 73.3708 127.295 68.8188 131.586 68.3802C134.981 68.0308 137.338 69.5268 139.413 70.1775C138.729 67.7242 137.518 65.7962 136.451 63.7255ZM133.595 59.2828C133.177 60.7668 133.57 63.0655 133.278 64.6775C131.694 63.6162 130.898 61.7682 129.363 60.6575C128.535 62.4375 127.911 64.4228 127.038 66.1575C125.231 64.3682 122.329 63.6748 120.162 62.2442C119.393 64.2148 118.063 65.7442 117.201 67.5322C116.918 68.1202 116.759 68.8348 116.249 69.3322C114.842 67.5295 113.266 65.8975 111.594 64.3602C110.773 66.7122 109.237 68.3482 108.527 70.8122C106.903 69.9322 105.727 68.6068 104.825 67.0042C104.559 67.6922 103.867 68.5135 104.085 69.3322C104.174 68.6455 104.474 68.1682 104.825 67.7442C106.059 68.9162 106.847 71.0722 108.845 71.1295C109.725 68.9415 111.386 67.5348 111.701 64.7828C113.289 66.5082 114.779 68.3322 116.461 69.9655C117.571 67.4815 119.147 65.4602 120.479 63.1975C121.529 63.7042 122.514 64.3108 123.653 64.9948C124.954 65.7762 126.185 67.1255 127.883 66.7922C128.562 65.0042 129.098 63.0722 129.682 61.1868C131.038 62.6508 131.802 64.7082 133.807 65.5242C133.713 63.3162 134.175 61.0868 133.595 59.2828ZM118.47 56.1095C117.637 56.7575 116.649 57.2508 116.037 58.1188C117.199 58.1922 118.257 58.3668 119.21 58.6482C119.034 57.7322 118.849 56.8228 118.47 56.1095ZM113.922 53.2535C113.785 55.8375 113.615 59.3322 114.133 61.6095C115.455 60.9588 116.762 60.2895 117.835 59.3882C116.842 58.9362 115.23 59.1028 114.133 58.7535C114.557 57.5215 115.802 57.1082 116.566 56.2162C115.923 55.7988 114.503 56.1628 114.027 55.5802C114.647 54.8268 115.565 54.3682 116.037 53.4655C115.282 53.4455 114.718 53.2335 113.922 53.2535ZM114.345 52.5135C115.458 52.3535 117.043 52.6348 118.047 52.9362C117.81 53.9762 116.285 54.2655 116.249 55.1575C117.109 55.1442 117.562 55.5375 118.365 55.5802C118.094 54.3695 118.151 52.8322 118.153 51.3495C116.729 51.5122 114.894 51.8282 114.345 52.5135ZM103.027 73.6682C103.186 70.7948 103.302 67.8788 105.037 66.5815C105.857 68.0895 106.977 69.2962 108.315 70.2828C109.109 67.9028 110.681 66.3028 111.383 63.8308C113.289 65.1348 114.674 66.9575 116.249 68.5908C116.771 67.5268 117.293 66.4615 117.941 65.5242C117.605 65.5415 117.162 65.7722 116.883 65.5242C116.729 65.1855 116.521 64.8988 116.566 64.3602C116.207 64.1548 115.526 64.2722 115.191 64.0415C115.461 63.2535 116.482 63.2175 117.094 62.7735C116.282 62.4242 115.151 62.3895 114.345 62.0322C114.809 63.3682 115.367 64.6068 115.297 66.4762C112.942 63.7695 112.326 57.4188 113.393 52.9362C114.665 51.7482 116.615 49.8775 118.999 50.8202C118.521 56.9762 121.334 59.8388 123.97 62.8788C122.771 63.1375 122.363 62.0602 121.855 61.5042C121.157 60.7415 120.231 60.1588 119.529 59.3882C118.446 60.0695 117.477 60.8642 116.249 61.3975C116.918 61.9988 118.611 61.5748 119.422 62.0322C119.173 62.8402 118.157 62.8842 117.623 63.4082C118.17 63.5308 118.147 64.2255 118.258 64.7828C119.11 64.0842 119.487 62.9095 119.951 61.8215C121.13 62.3868 122.318 63.0682 123.547 63.6188C124.798 64.1815 125.994 64.7402 126.931 65.6295C127.681 63.7348 128.363 61.7722 129.363 60.1282C130.815 61.1455 131.719 62.7108 132.961 63.9362C133.019 61.9495 132.834 59.7202 133.49 58.3308C134.837 60.1775 135.926 62.1748 137.086 64.1482C138.233 66.1002 139.39 68.1322 139.942 70.6015C137.514 70.1028 135.913 68.7775 133.067 68.6975C132.919 68.5215 132.051 68.5215 131.903 68.6975C127.106 68.8482 126.074 73.5815 121.221 73.9855C118.865 74.1815 116.715 73.7495 114.767 73.8802C112.349 74.0415 110.166 74.5335 108.738 75.5722C106.363 77.3028 106.214 80.4015 104.614 83.6108C103.231 82.0308 103.203 79.0975 103.027 76.3122V73.6682Z" fill="white"/>
<path fill-rule="evenodd" clip-rule="evenodd" d="M139.411 70.1779C137.335 69.5259 134.979 68.0312 131.585 68.3792C127.294 68.8179 125.626 73.3712 121.006 73.7739C118.786 73.9686 116.719 73.5606 114.766 73.6672C112.53 73.7912 109.995 74.3112 108.419 75.3606C106.101 76.9072 105.777 80.5606 104.611 82.9766C103.763 81.4272 103.443 79.3499 103.447 76.9459C103.813 78.4179 103.946 80.1179 104.399 81.4952C104.859 80.6672 104.849 79.6246 105.246 78.6392C105.695 77.5299 107.493 74.7899 108.526 74.1966C111.659 72.4006 116.606 73.5872 121.113 73.2446C124.562 72.9832 125.335 70.5952 127.67 69.1206C130.654 67.2339 136.835 67.0966 139.094 69.7539C138.277 68.0806 137.335 66.0752 136.555 64.1486C136.555 64.1486 136.01 63.5379 136.45 63.7259C137.517 65.7952 138.727 67.7246 139.411 70.1779Z" fill="#363535"/>
<path fill-rule="evenodd" clip-rule="evenodd" d="M149.566 75.4655C149.597 76.1042 149.793 76.5802 149.779 77.2642C150.847 77.8069 152.307 77.5655 152.423 76.3122C152.694 76.6255 152.387 77.2602 152.317 77.5815C150.322 79.1509 147.918 76.7215 149.249 74.7255C149.869 73.7975 151.775 73.4749 152.951 73.9855C155.247 74.9802 154.135 80.1429 152.529 81.4949C152.61 80.7655 153.277 79.7055 153.481 78.7442C153.035 78.7615 152.646 79.7429 151.894 79.8029C152.149 79.2375 153.169 78.7722 153.481 78.1095C154.931 75.0282 151.339 73.0855 149.566 75.4655Z" fill="white"/>
<path fill-rule="evenodd" clip-rule="evenodd" d="M150.626 82.976C151.274 82.8573 151.347 81.496 150.731 81.284C148.743 81.6587 148.063 83.34 146.606 84.2467V84.9853C147.015 83.704 148.85 83.092 149.884 84.14C148.428 83.3907 146.664 84.3973 146.711 86.3613C144.74 83.74 149.835 82.3213 149.355 79.9093C148.952 77.8773 145.943 80.264 147.98 81.072C148.55 81.1133 148.438 80.2707 148.298 79.9093C149.328 80.2693 148.518 81.5293 147.98 81.6013C146.45 81.8067 146.428 78.8013 148.087 78.7453C147.567 78.4653 147.023 78.5133 146.816 78.1107C146.182 76.8693 148.348 75.7093 148.087 77.5827C147.828 77.488 147.972 76.9907 147.558 77.0533C147.226 77.004 147.259 77.3187 147.135 77.476C147.716 78.6267 149.667 78.2067 149.884 79.6973C149.948 80.14 149.842 80.4827 149.672 80.9667C152.288 79.4 152.071 84.8133 149.99 82.976C150.023 82.5507 150.244 82.312 150.519 82.1293C150.651 82.16 150.142 82.856 150.626 82.976Z" fill="white"/>
<path fill-rule="evenodd" clip-rule="evenodd" d="M129.786 77.4755C129.879 77.8195 129.302 78.3982 129.362 79.0622C130.337 77.8862 133.249 76.7008 135.603 77.7928C135.509 78.1902 135.365 78.5408 135.286 78.9568C132.902 78.1555 129.998 78.7408 129.574 80.8608C129.309 80.5995 128.934 80.4448 128.729 80.1208C128.75 78.9075 129.195 78.1182 129.786 77.4755Z" fill="#363535"/>
<path fill-rule="evenodd" clip-rule="evenodd" d="M142.374 82.0242C142.463 81.3375 142.77 80.8682 142.902 80.2255C142.421 80.3788 141.998 80.5895 141.633 80.8615C142.195 80.3015 143.679 79.2762 143.115 77.5815C143.267 77.3655 143.707 78.3108 143.749 78.6388C143.897 79.8055 143.131 81.7082 142.374 82.0242Z" fill="#363535"/>
<path fill-rule="evenodd" clip-rule="evenodd" d="M119.315 80.8606C120.206 81.734 120.769 82.9326 120.797 84.6673C118.935 84.222 117.018 83.1153 114.873 83.822C113.931 84.1326 113.467 85.0153 112.441 85.0913C112.354 82.1433 117.581 81.7513 119.95 83.082C120.045 82.0353 119.575 81.554 119.315 80.8606Z" fill="#363535"/>
<path fill-rule="evenodd" clip-rule="evenodd" d="M136.662 84.4572C137.489 85.5572 137.017 87.2119 135.076 86.9959C133.47 86.8146 132.88 85.2932 131.057 85.8319C129.461 86.3039 129.144 88.0932 126.932 87.8426C126.292 87.7692 125.98 87.5292 125.425 87.0999C125.71 90.4626 122.421 88.7212 120.162 89.2172C118.749 89.5266 118.524 90.8506 118.257 92.3906C117.553 93.5146 115.266 93.4266 114.873 92.0719C115.37 92.1266 115.856 92.6572 116.46 92.3906C117.068 92.1199 116.934 90.6506 117.094 90.0639C117.552 88.3906 118.972 87.2932 120.902 87.2079C122.532 87.1346 124.44 88.2999 125.45 86.9959C128.773 87.0026 128.322 83.2959 132.008 83.7159C132.28 83.7466 132.646 83.7946 132.961 83.9279C134.092 84.4079 136.362 87.8652 136.662 84.4572Z" fill="#363535"/>
<path fill-rule="evenodd" clip-rule="evenodd" d="M116.037 53.4651C115.565 54.3691 114.648 54.8265 114.026 55.5798C114.502 56.1625 115.924 55.7985 116.565 56.2158C115.802 57.1078 114.557 57.5211 114.133 58.7545C115.23 59.1038 116.842 58.9358 117.834 59.3878C116.761 60.2905 115.456 60.9585 114.133 61.6091C113.616 59.3318 113.784 55.8385 113.921 53.2531C114.717 53.2331 115.281 53.4451 116.037 53.4651Z" fill="#363535"/>
<path fill-rule="evenodd" clip-rule="evenodd" d="M119.21 58.6479C118.257 58.3679 117.198 58.1919 116.037 58.1199C116.649 57.2506 117.637 56.7573 118.469 56.1093C118.849 56.8226 119.033 57.7319 119.21 58.6479Z" fill="#363535"/>
<path fill-rule="evenodd" clip-rule="evenodd" d="M133.806 65.5243C131.8 64.7083 131.036 62.651 129.68 61.187C129.096 63.0723 128.56 65.0043 127.882 66.7923C126.183 67.1256 124.952 65.775 123.651 64.995C122.512 64.311 121.527 63.7043 120.478 63.1963C119.146 65.4603 117.57 67.4816 116.459 69.9656C114.778 68.3323 113.287 66.5083 111.699 64.783C111.384 67.535 109.723 68.9416 108.843 71.1296C106.846 71.0723 106.056 68.9163 104.824 67.7443C104.472 68.1683 104.171 68.6456 104.083 69.331C103.864 68.5136 104.558 67.691 104.824 67.0043C105.724 68.607 106.902 69.9323 108.526 70.8123C109.235 68.3483 110.771 66.711 111.592 64.3603C113.264 65.8976 114.84 67.5283 116.247 69.331C116.758 68.8336 116.916 68.1203 117.199 67.5323C118.062 65.7443 119.391 64.2163 120.16 62.2443C122.327 63.675 125.23 64.3683 127.036 66.1576C127.91 64.423 128.534 62.4376 129.362 60.6576C130.896 61.7683 131.692 63.6163 133.276 64.6776C133.568 63.0656 133.175 60.767 133.594 59.283C134.174 61.087 133.711 63.3163 133.806 65.5243Z" fill="#363535"/>
<path fill-rule="evenodd" clip-rule="evenodd" d="M109.478 90.6961C109.217 90.9495 108.726 90.5375 108.421 90.4868C107.534 91.5188 108.979 92.3841 109.689 92.8135C108.155 93.6015 107.262 92.0255 107.363 90.4868C107.229 90.2321 107.017 90.0561 106.622 90.0628C105.985 91.8215 107.467 93.2175 109.055 93.4468C106.854 93.8521 105.017 90.5521 106.622 88.7935C108.063 88.9388 108.565 90.0241 109.478 90.6961Z" fill="#363535"/>
<path fill-rule="evenodd" clip-rule="evenodd" d="M135.287 73.9853C134.799 73.9213 134.677 74.2239 134.229 74.1973C133.123 72.8506 130.323 72.7586 128.517 73.6679C127.876 73.9906 127.668 74.9773 126.931 74.6199C125.78 74.0639 126.957 73.0026 127.777 72.6106C130.061 71.5173 134.687 71.0306 135.287 73.9853Z" fill="#363535"/>
<path fill-rule="evenodd" clip-rule="evenodd" d="M117.518 77.3705C114.021 77.1238 112.398 79.6478 110.642 81.4958C110.508 80.8892 110.113 80.5438 109.902 80.0145C110.69 78.2985 113.589 75.1785 116.461 75.6772C117.202 75.8065 117.67 76.3292 117.518 77.3705Z" fill="#363535"/>
<path fill-rule="evenodd" clip-rule="evenodd" d="M122.066 92.1777C121.839 91.9884 121.506 91.2724 121.538 91.0151C121.704 89.6631 124.203 90.2231 125.768 90.0631C127.843 89.8497 128.482 88.2337 130.316 88.3711C131.963 91.8337 123.947 93.7417 122.066 92.1777ZM130.423 87.2071C129.311 86.9577 128.432 88.1031 127.672 88.4764C126.482 89.0604 125.566 89.2604 124.182 89.4271H123.123C122.136 89.3924 121.238 89.4457 120.796 89.9577C120.459 91.0057 120.983 91.9951 121.326 92.7057C124.522 94.4151 130.486 92.6511 131.268 89.9577C131.592 88.8417 131.232 87.3884 130.423 87.2071Z" fill="#363535"/>
<path fill-rule="evenodd" clip-rule="evenodd" d="M106.622 88.7937C105.017 90.551 106.854 93.8524 109.055 93.447C107.467 93.2164 105.985 91.8217 106.622 90.063C107.017 90.055 107.229 90.2324 107.363 90.487C107.262 92.0257 108.155 93.6004 109.689 92.8137C108.981 92.383 107.534 91.519 108.421 90.487C108.726 90.5377 109.217 90.9497 109.478 90.6964C108.565 90.0244 108.065 88.9377 106.622 88.7937ZM123.122 89.4284C122.135 89.3924 121.237 89.4457 120.795 89.9577C120.458 91.0057 120.983 91.995 121.325 92.707C124.521 94.415 130.485 92.6524 131.267 89.9577C131.591 88.8417 131.233 87.3884 130.422 87.207C129.31 86.9577 128.431 88.103 127.671 88.4764C126.481 89.0604 125.565 89.2617 124.181 89.4284H123.122ZM132.959 83.9284C132.646 83.795 132.279 83.747 132.007 83.7164C128.321 83.2964 128.773 87.003 125.449 86.9964C124.439 88.3004 122.531 87.1337 120.901 87.207C118.971 87.2937 117.551 88.3897 117.094 90.063C116.933 90.651 117.067 92.119 116.459 92.3897C115.854 92.6564 115.37 92.127 114.871 92.0724C115.266 93.427 117.553 93.515 118.257 92.3897C118.525 90.851 118.749 89.527 120.161 89.2164C122.421 88.719 125.629 90.359 125.345 86.9964C125.899 87.4257 126.29 87.7684 126.93 87.8417C129.143 88.0924 129.461 86.303 131.057 85.8324C132.878 85.2937 133.47 86.815 135.075 86.9964C137.017 87.2124 137.487 85.5577 136.662 84.4577C136.362 87.8657 134.091 84.4084 132.959 83.9284ZM119.95 83.0817C117.581 81.7524 112.353 82.1444 112.439 85.091C113.467 85.015 113.93 84.1324 114.871 83.8217C117.018 83.115 118.935 84.2217 120.795 84.667C120.767 82.9324 120.206 81.7337 119.315 80.8617C119.574 81.5537 120.043 82.035 119.95 83.0817ZM143.749 78.639C143.707 78.311 143.266 77.3657 143.114 77.5817C143.678 79.2764 142.194 80.3004 141.633 80.8617C141.997 80.5897 142.419 80.3777 142.902 80.2257C142.769 80.8684 142.462 81.3377 142.373 82.0244C143.131 81.7084 143.895 79.8057 143.749 78.639ZM128.729 80.1204C128.934 80.4444 129.309 80.599 129.574 80.8617C129.998 78.7404 132.902 78.155 135.287 78.9564C135.365 78.5417 135.509 78.1897 135.603 77.7937C133.249 76.7017 130.337 77.8857 129.362 79.063C129.302 78.399 129.879 77.8204 129.786 77.475C129.195 78.119 128.75 78.907 128.729 80.1204ZM116.459 75.6777C113.589 75.179 110.69 78.2964 109.901 80.015C110.111 80.5444 110.507 80.8897 110.642 81.495C112.397 79.6484 114.019 77.1257 117.517 77.371C117.67 76.3297 117.202 75.807 116.459 75.6777ZM127.777 72.6097C126.957 73.0017 125.779 74.063 126.93 74.6204C127.669 74.9777 127.875 73.991 128.517 73.667C130.323 72.759 133.123 72.851 134.23 74.1964C134.678 74.223 134.798 73.9204 135.287 73.9857C134.687 71.0297 130.061 71.5177 127.777 72.6097ZM140.258 78.639C139.849 78.827 139.206 78.7377 138.778 78.639C138.665 79.175 139.09 79.1724 139.201 79.4857C142.03 80.023 141.345 77.0457 142.373 75.7844C143.563 75.479 144.385 75.8324 144.594 77.0524C145.066 79.807 143.759 86.0617 140.575 84.1404C139.751 89.7324 135.289 91.687 131.691 94.5057C131.785 94.6937 132.121 94.6404 132.007 95.035C130.477 96.319 128.173 99.0964 125.767 97.2564C126.442 96.8377 127.303 96.6044 128.094 96.3044C127.119 96.0737 125.99 96.519 124.922 96.7257C123.417 97.019 122.057 97.339 120.161 97.2564C116.547 97.0977 113.883 95.7657 111.911 94.083C111.735 94.4004 111.607 94.7657 111.277 94.9297C109.626 94.9004 107.994 94.8777 106.939 93.9764C105.985 93.159 104.873 90.6924 105.035 89.2164C105.147 88.2017 105.782 87.3364 106.727 86.8897C107.746 87.247 108.302 88.0657 109.266 88.4764C108.941 90.7897 112.173 90.4537 112.017 88.4764C111.767 88.051 111.171 88.8244 110.43 88.5817C110.186 87.555 109.577 86.8977 108.95 86.255C109.297 83.207 110.046 79.7044 109.161 76.6297C110.853 75.339 111.81 74.6297 113.497 74.6204C115.745 74.607 118.283 76.115 121.007 75.467C123.782 74.8044 124.885 73.179 126.719 71.5524C127.853 70.547 132.649 68.8057 134.546 70.1777C135.659 70.9817 136.258 73.507 138.142 74.7257C139.507 75.6084 141.902 76.463 140.258 78.639Z" fill="white"/>
<path fill-rule="evenodd" clip-rule="evenodd" d="M135.076 63.0907C135.338 63.076 135.762 63.5054 135.886 63.6267C135.779 63.2547 135.592 62.952 135.482 62.7494C135.366 62.5427 135.116 62.8747 135.076 63.0907Z" fill="#AD9050"/>
<path fill-rule="evenodd" clip-rule="evenodd" d="M134.224 61.8315C134.242 61.7088 134.502 61.6008 134.652 61.6088C134.652 61.8222 134.547 61.9275 134.547 62.1382C134.758 61.9528 134.635 61.9822 134.958 61.9048C135.158 62.2448 134.88 62.5222 135.287 62.5022C135.174 61.8728 134.483 60.9702 134.018 60.3408C134.238 60.6128 133.975 61.5875 134.224 61.8315Z" fill="#AD9050"/>
<path fill-rule="evenodd" clip-rule="evenodd" d="M130.95 63.1968C130.608 62.9395 130.449 62.5022 130.104 62.2448C130.072 62.6302 130.121 62.9328 130.21 63.1968C130.509 63.0862 130.936 63.3702 130.95 63.1968Z" fill="#AD9050"/>
<path fill-rule="evenodd" clip-rule="evenodd" d="M124.392 68.9091C123.174 68.7824 122.712 69.9771 122.278 70.2838C122.666 69.3678 123.135 68.5331 123.018 67.1104C121.926 65.8344 119.938 68.2891 121.748 68.6971C122.182 68.6598 122.223 67.5531 121.748 67.5331C123.195 67.6451 122.31 69.2838 121.431 69.2251C120.844 69.1864 120.768 68.6078 120.372 68.1678C120.219 68.7531 119.187 67.9731 119.844 67.7438C119.782 68.0198 119.887 68.1264 120.162 68.0624C120.299 67.3771 119.567 67.5064 119.315 67.7438C119.315 68.5198 120.208 68.4038 120.479 68.9091C120.242 68.7011 119.683 68.8158 119.42 68.9091C119.282 69.2704 119.658 69.6464 119.844 69.3318C119.672 69.3624 119.559 69.1878 119.739 69.1198C119.984 69.1571 120.235 69.1878 120.162 69.5424C121.734 69.3758 120.667 71.6758 119.739 70.7064C120.296 70.7704 120.576 70.5571 120.691 70.1784C120.042 69.6264 119.003 70.1571 119.315 71.2358C120.552 72.1238 121.399 70.3384 122.171 69.7544C121.754 70.1891 121.532 71.2944 122.171 71.6584C122.783 71.6758 123.42 71.2558 123.23 70.8118C122.78 70.6184 122.738 71.3678 122.595 71.1291C122.504 70.6158 122.84 70.5291 123.123 70.3891C123.323 70.4118 123.672 70.8131 123.758 70.6011C123.604 70.3704 123.899 69.6864 124.392 69.7544C124.131 69.9651 123.899 70.4598 124.392 70.6011C124.97 70.4211 124.97 69.0878 124.392 68.9091Z" fill="#AD9050"/>
<path fill-rule="evenodd" clip-rule="evenodd" d="M132.96 66.4753C132.71 66.5073 132.764 66.842 132.43 66.7927C132.393 66.654 132.244 66.626 132.218 66.4753C131.846 66.5953 131.56 66.8033 131.056 66.7927C131.292 66.378 132.174 65.6553 132.537 66.0527C132.696 65.894 132.697 65.578 133.066 65.6287C133.153 65.894 133.354 66.0447 133.382 66.3687C133.732 66.098 134.228 66.3847 134.652 66.3687C134.582 66.8353 133.002 67.1167 132.96 66.4753ZM128.94 67.5327C128.457 67.9127 127.7 68.5273 126.93 68.274C127.36 67.786 128.333 67.8433 128.412 67.0047C128.733 66.8873 129.214 67.0713 129.786 67.0047C128.002 66.5473 129.124 63.5113 130.526 63.8313C129.665 64.326 128.568 66.4353 130.421 66.6873C130.209 67.2513 129.753 67.57 128.94 67.5327ZM125.172 67.6447C125.074 67.6913 124.952 67.7113 124.825 67.6713C124.701 67.626 124.61 67.514 124.585 67.4047C124.556 67.294 124.558 67.186 124.601 67.0873C124.692 67.2753 124.78 67.43 124.9 67.4633C125.009 67.5047 125.17 67.4753 125.352 67.4553C123.913 66.294 124.068 67.258 123.652 67.6393C123.37 65.7233 125.09 66.6993 125.414 67.4487C125.428 67.4767 125.441 67.5047 125.45 67.5327C125.426 67.514 125.406 67.4993 125.384 67.4807C125.325 67.55 125.256 67.6047 125.172 67.6447ZM124.816 71.0233C124.432 71.0193 123.98 71.0833 123.862 70.8113C123.813 72.0407 121.642 72.638 121.324 71.2353C120.454 72.422 118.669 71.8193 117.833 71.0233C117.636 71.142 117.324 71.1487 117.412 71.5527C117.362 71.7247 117.988 71.7247 117.94 71.5527C118.297 71.9513 117.306 72.1033 116.988 71.87C117.005 71.746 116.964 71.6807 116.882 71.658C116.969 70.7233 118.22 70.4433 118.785 71.1287C118.48 70.4927 119.333 70.1727 119.42 69.754C119.48 69.4727 118.552 68.8327 119.42 68.6967C118.546 68.0967 119.562 67.1593 119.209 66.6873C118.892 66.7567 119.31 66.9127 119.209 67.11C118.897 67.1127 118.781 66.6913 118.998 66.4753C119.674 66.4247 119.836 66.902 119.526 67.3207C119.902 67.334 120.378 67.246 120.372 67.6393C120.706 67.0913 121.056 66.5593 121.748 66.3687C121.312 66.17 120.764 66.0847 120.478 65.7353C119.958 63.9593 122.181 63.766 121.853 65.206C121.46 65.2473 121.657 64.698 121.324 64.6767C121.018 64.7247 120.842 64.9007 120.796 65.206C121.436 66.198 123.236 65.7593 123.545 67.11C123.625 67.454 123.553 67.9847 123.44 68.4847C124.91 67.69 126.106 69.9913 124.816 71.0233ZM104.824 75.89C104.628 76.3953 105.005 76.894 104.718 77.37C103.968 77.4607 104.329 75.9593 104.4 75.5727C105.98 75.7247 106.837 74.3793 107.468 73.2447C106.626 73.5647 105.722 75.674 104.4 75.254C102.854 74.7633 105.246 72.6393 105.881 72.2927C104.776 72.306 104.016 71.9727 103.978 70.918C104.306 70.5407 104.86 70.39 105.46 70.2833C105.618 70.4553 105.618 71.0633 105.46 71.2353C105.166 71.174 104.865 71.1233 104.93 70.706C104.637 70.7313 104.606 71.018 104.506 71.2353C104.754 71.9393 105.738 71.9073 106.516 72.082C106.126 73.2233 104.117 73.2567 104.506 74.8313C105.705 74.69 106.156 73.802 106.833 73.1393C106.329 73.3393 106.066 73.7807 105.353 73.774C105.642 73.182 106.565 73.2247 106.728 72.5047C106.84 72.0113 106.205 71.9167 106.516 71.5527C107.149 71.5247 107.421 72.3473 107.045 72.7167C107.226 72.9233 107.786 72.75 107.89 73.0327C107.39 74.5073 106.484 75.5753 104.824 75.89ZM105.353 71.658C105.842 71.2047 106.205 69.982 105.246 69.754C104.852 69.8527 104.762 70.2553 104.294 70.2833C105.072 67.9007 107.88 71.286 105.353 71.658ZM136.132 63.8313C135.465 63.934 135.544 63.2913 134.969 63.3033C134.853 63.4753 134.578 64.0287 134.862 64.254C135.306 63.754 135.618 64.6513 136.132 64.466C136.845 65.4873 135.708 66.314 135.498 66.6873C136.168 67.0473 136.098 65.7393 137.084 66.2633C136.521 67.03 137.276 67.226 137.19 67.85C136.764 68.1167 136.484 67.4687 136.344 67.11C135.526 67.4087 134.814 66.85 134.652 66.158C134.916 66.0687 135.22 66.0193 135.602 66.0527C135.746 65.8713 135.984 65.242 135.71 64.9953C135.716 65.3887 135.45 65.194 135.074 65.206C133.774 64.8513 134.933 62.4633 134.206 62.3273C134.044 63.254 134.026 64.898 134.017 65.946C133.137 65.558 132.294 65.13 131.796 64.3607C132.144 67.846 127.952 65.426 130.526 64.254C130.728 64.582 131.176 64.6633 131.268 65.1007C130.91 65.4647 130.425 64.8767 130.209 65.1007C130.141 65.486 130.281 65.6633 130.421 65.8407C131.814 65.902 131.322 64.094 130.738 63.6193C130.349 63.466 129.905 63.602 129.681 63.514C129.612 63.0873 129.82 62.39 129.574 62.1393C129.242 63.958 128.644 65.5073 127.988 67.0047C127.594 67.1753 126.948 67.0913 126.401 67.11C124.557 65.7807 122.606 64.5593 120.478 63.514C119.401 65.966 117.269 67.9167 116.67 70.4953C114.894 68.9927 113.493 67.114 111.91 65.418C111.72 66.5727 111.174 67.4727 110.536 68.59C110.165 69.2407 109.41 71.2927 108.737 71.4473C106.861 71.8753 106.148 68.8673 104.718 68.274C103.081 71.354 103.37 77.1127 104.506 80.542C105.629 76.482 107.512 73.1833 112.545 73.0327C111.626 72.7887 111.22 72.0313 110.746 71.3407C110.61 71.886 111.053 72.2273 110.853 72.5047C110.509 72.566 110.361 72.4313 110.113 72.398C110.046 73.17 109.217 72.7513 108.737 72.9273C109.242 72.6393 109.642 71.742 110.218 71.87C110.244 71.2607 110.164 70.5473 110.641 70.3887C111.609 70.9633 111.577 73.05 113.286 72.6113C114.284 72.3527 115.161 69.0393 113.709 68.59C111.846 68.0153 111.637 71.274 112.968 71.2353C113.305 71.1167 113.764 70.0993 113.286 69.8607C113.066 70.318 113.188 70.1047 113.286 70.6007C113.022 70.69 112.718 70.7393 112.333 70.706C112.68 70.1353 112.792 69.3313 113.814 69.4367C114.901 71.3087 111.557 72.7007 111.593 70.178C111.318 70.282 110.884 70.3633 110.746 70.0713C110.812 68.8087 111.072 67.1007 112.44 66.582C111.841 67.7847 111.33 68.406 111.381 69.8607C111.958 68.9913 112.314 67.9007 114.025 68.1673C115.596 69.2033 114.853 72.7273 113.18 73.0327C115.265 72.8087 117.145 72.958 118.785 73.0327C122.904 73.2207 124.382 71.9113 126.401 69.966C128.794 67.6607 135.185 66.166 138.353 68.9087C137.689 67.1407 136.74 65.658 136.132 63.8313Z" fill="#AD9050"/>
<path fill-rule="evenodd" clip-rule="evenodd" d="M148.086 57.8022C151.206 55.7928 155.111 53.7275 159.278 53.4902C158.954 53.3622 158.59 53.2875 158.186 53.2622C155.835 53.5502 153.691 54.1328 151.722 54.9155C150.631 55.3835 149.531 55.9128 148.474 56.4595C146.328 57.6542 144.419 59.0715 142.699 60.5515C141.348 61.7168 140.239 63.0355 139.371 64.6222C139.53 65.1568 139.734 65.7835 139.85 66.1355C141.708 63.0848 144.488 60.1182 148.086 57.8022Z" fill="white"/>
<path fill-rule="evenodd" clip-rule="evenodd" d="M162.471 55.2638C161.436 54.7744 160.347 54.8451 159.192 54.9464C152.161 55.5638 146.98 60.6224 145.547 66.8998C142.94 67.5064 141.611 72.2038 145.017 73.1384C144.645 72.3758 143.545 71.7864 143.431 70.6011C143.169 67.8824 147.345 66.3531 148.825 68.6971C148.896 69.2264 148.728 69.5158 148.72 69.9651C150.283 68.7664 148.387 66.7304 146.815 66.6864C147.328 60.8518 151.745 57.7064 156.287 55.8998C153.641 57.7998 150.06 60.4104 149.777 64.3598C149.637 66.3318 150.66 68.1424 150.517 70.1784C150.331 72.8678 145.912 73.3451 146.181 69.9651C146.595 69.4624 147.459 69.4091 147.979 69.0144C146.811 68.1758 145.437 69.4624 145.335 70.4944C145.196 71.9051 146.505 72.8464 147.451 73.0331C149.573 73.4544 151.163 71.8504 151.576 70.4944C152.071 68.8718 150.935 66.4638 152.421 65.8411C152.388 65.5198 152.028 65.2078 152.316 64.8891C152.628 64.5664 153.236 64.5398 153.903 64.5718C151.813 63.3678 151.169 66.2531 150.835 67.8504C149.197 62.3931 152.561 59.5184 155.384 57.1678C157.367 55.5144 159.312 54.9158 162.471 55.2638Z" fill="white"/>
<path fill-rule="evenodd" clip-rule="evenodd" d="M158.241 53.2541C151.661 54.0474 146.674 57.1274 142.701 60.5514C141.349 61.7168 140.238 63.0354 139.372 64.6248C138.354 62.7501 138.058 62.1181 137.297 60.9754C142.425 56.6168 148.528 52.3501 158.241 53.2541Z" fill="#373535"/>
<path d="M106.41 67.1101C106.41 67.1101 107.851 61.6101 112.546 60.5514" stroke="#363535" stroke-width="4" stroke-miterlimit="10"/>
</g>
</svg>
