<svg width="23" height="22" viewBox="0 0 23 22" fill="none" xmlns="http://www.w3.org/2000/svg">
<path fill-rule="evenodd" clip-rule="evenodd" d="M4.42518 6.41017C4.48365 6.85189 4.51613 7.24536 5.05019 7.28944C5.1583 7.29826 5.40515 7.51263 5.32163 7.62352C5.19495 7.79242 5.15505 8.0555 4.93001 8.13021C4.58944 8.24249 4.45441 8.53203 4.6312 8.85497C4.79267 9.15007 4.75926 9.56953 5.17454 9.71151C5.21166 9.7245 5.24367 9.85025 5.22558 9.90639C5.18289 10.0391 5.05251 9.96671 4.96017 9.98759C4.84742 10.0145 4.67389 9.90036 4.63491 10.1003C4.60568 10.2525 4.75926 10.2813 4.85345 10.3365C5.00332 10.4247 5.12582 10.517 5.05112 10.7226C4.93372 10.7532 4.87665 10.6724 4.80891 10.5987C4.62424 10.3968 4.46741 10.3119 4.45581 10.704C4.45441 10.7472 4.45905 10.8191 4.43864 10.8288C3.67443 11.181 4.08182 11.9633 3.74403 12.5141C3.60251 12.4598 3.38815 12.4329 3.1696 12.5354C3.09304 12.5711 2.94271 12.6143 2.89538 12.4904C2.67591 11.9174 2.23697 12.0927 1.82772 12.1619C1.70244 12.1837 1.54654 12.3586 1.51035 12.0556C1.49968 11.9656 1.32475 11.9754 1.23149 11.999C0.84776 12.0955 0.689073 11.8686 0.648241 11.5596C0.58189 11.0488 0.0919081 10.7472 0.0385483 10.2317C0.0134925 9.98759 -0.077915 9.78575 0.156868 9.55514C0.387475 9.32918 0.531778 9.36305 0.751249 9.52498C0.853792 9.60061 0.954944 9.51153 1.05238 9.42615C1.60918 8.94174 2.28662 8.59513 2.70978 7.9576C2.75572 7.88846 2.83599 7.81515 2.91301 7.79706C3.4197 7.67967 3.63871 7.24212 3.90411 6.88066C4.04795 6.68439 4.22102 6.58138 4.42518 6.41017Z" fill="#414958"/>
<path fill-rule="evenodd" clip-rule="evenodd" d="M6.16601 11.7784C5.86951 12.2197 5.98597 12.6029 6.00361 12.9764C6.02031 13.3309 5.83146 13.466 5.49042 13.356C5.39531 13.3258 5.38092 13.2864 5.40737 13.2043C5.43846 13.1073 5.46908 13.0099 5.4946 12.9115C5.61663 12.4415 5.54425 12.3227 5.07422 12.2373C5.17119 11.7524 5.26678 11.2713 5.26724 10.7674C5.26817 10.1739 5.98226 9.65747 6.62536 9.7396C7.1339 9.80456 7.63873 9.90246 8.14728 9.74934C8.22894 9.72475 8.30039 9.72521 8.29668 9.82869C8.29251 9.93726 8.35793 10.0853 8.21409 10.1423C7.84939 10.2867 7.55985 10.4945 7.42622 10.8871C7.39792 10.9701 7.18402 11.0351 7.45638 11.0574C7.49489 11.0606 7.54501 11.0857 7.51763 11.1455C7.47958 11.229 7.40534 11.2225 7.33203 11.2151C7.07219 11.1905 6.78637 11.4708 6.86896 11.7014C6.97197 11.9881 7.07451 12.2962 7.2629 12.524C7.44339 12.7431 7.50881 12.912 7.37472 13.1602C7.33946 13.2256 7.40488 13.3463 7.26522 13.3555C7.15757 13.3625 7.05642 13.3648 7.05595 13.2094C7.05549 13.1574 7.03507 13.1166 6.95387 13.1096C6.58824 13.0795 6.58221 13.0539 6.49312 12.7328C6.41007 12.4336 6.29314 12.144 6.16601 11.7784Z" fill="#414958"/>
<path fill-rule="evenodd" clip-rule="evenodd" d="M7.9092 3.81719C7.9556 3.91742 8.05211 4.01114 7.94493 4.14478C7.69808 4.03202 7.4633 3.9434 7.57373 3.57035C7.62013 3.41398 7.57512 3.22792 7.28049 3.33092C7.16727 3.37083 6.80303 3.61907 6.80999 3.15275C6.77705 3.16713 6.73204 3.17316 6.71255 3.19822C6.65641 3.27292 6.54412 3.33556 6.62161 3.45574C6.6527 3.50353 6.71302 3.53694 6.7339 3.58705C6.79514 3.73507 6.7107 3.84874 6.60398 3.92762C6.45875 4.03574 6.36038 3.85849 6.35063 3.80049C6.31908 3.59958 5.90612 3.37176 6.36595 3.18616C6.19983 3.09057 6.25412 2.86321 6.11956 2.75789C5.80404 2.51197 5.77713 2.09762 6.06667 1.82293C6.20587 1.69069 6.15204 1.5102 6.13023 1.36543C6.08105 1.0462 6.21979 0.830441 6.45828 0.672217C6.70281 0.509818 6.87913 0.819304 7.11205 0.8026C7.18258 0.797961 7.21321 0.867096 7.19882 0.925096C7.10695 1.30465 7.46608 1.81551 6.8383 2.04751C6.63692 2.12175 6.72508 2.33936 7.04153 2.53285C6.98213 2.65581 6.68889 2.58899 6.77844 2.80336C6.85825 2.99499 7.02761 2.88688 7.19001 2.86321C7.4452 2.82609 7.77047 2.76299 7.82986 3.18987C7.8512 3.34252 7.94307 3.48497 8.00293 3.63206C7.98298 3.69934 7.91941 3.74481 7.9092 3.81719Z" fill="#414958"/>
<path fill-rule="evenodd" clip-rule="evenodd" d="M6.96244 6.53684C6.92764 6.18141 7.50671 5.56337 7.74752 5.72762C7.88069 5.81857 7.93683 6.01252 8.10619 5.84316C8.32056 5.63018 8.67645 5.50398 8.61752 5.0655C8.97665 5.24785 9.22953 5.47243 9.21793 5.88121C9.20958 6.16842 9.41606 6.46492 9.16828 6.74471C9.00542 6.92938 8.89174 7.00733 8.88107 6.62082C8.71218 6.79343 8.74094 6.94655 8.77157 7.09503C8.83049 7.38595 8.63654 7.41286 8.47554 7.3145C8.18879 7.13864 7.71272 7.06904 7.90621 6.5257C7.94565 6.4148 7.79114 6.28535 7.74335 6.31412C7.49882 6.46028 7.18191 6.33036 6.96244 6.53684Z" fill="#414958"/>
<path fill-rule="evenodd" clip-rule="evenodd" d="M9.9427 9.21212C10.0986 9.30631 9.95802 9.48495 10.0429 9.60884C10.1571 9.63389 10.2601 9.45154 10.3905 9.59028C10.5375 9.74618 10.3649 9.80696 10.3223 9.91554C10.2244 10.167 10.5737 10.1605 10.602 10.4C10.3946 10.4241 10.2169 10.5243 10.0555 10.6927C9.88378 10.8728 9.78448 10.9837 10.0406 11.153C10.1213 11.2064 10.1371 11.2955 10.0814 11.3841C10.0197 11.4806 9.92182 11.5038 9.81557 11.5089C9.73298 11.5126 9.67637 11.4894 9.66663 11.3957C9.58867 10.651 9.54923 9.91043 9.89166 9.2098C9.89398 9.20469 9.91765 9.21073 9.9427 9.21212Z" fill="#414958"/>
<path fill-rule="evenodd" clip-rule="evenodd" d="M7.71136 15.9546C7.62227 15.7518 7.67284 15.5583 7.84035 15.4502C8.31084 15.1482 8.80454 14.8888 9.37061 14.8043C9.45552 14.7923 9.52141 14.8099 9.54972 14.8837C9.58637 14.9802 9.49868 15.0113 9.43279 15.0322C8.80175 15.2284 8.38137 15.8154 7.71136 15.9546Z" fill="#414958"/>
<path fill-rule="evenodd" clip-rule="evenodd" d="M7.90813 3.81725C7.75222 3.66088 7.89792 3.65717 8.00185 3.63212C8.11368 3.72631 8.2487 3.70914 8.37769 3.69893C8.56561 3.68408 8.72523 3.78384 8.74471 3.93372C8.76606 4.09611 8.91918 4.34482 8.6134 4.43901C8.4394 4.49237 8.53638 4.58702 8.57396 4.67472C8.61062 4.7601 8.63614 4.84547 8.51179 4.88213C8.39718 4.916 8.30067 4.89048 8.27376 4.76288C8.23571 4.58053 8.08955 4.40931 8.17632 4.21351C8.30392 3.92444 8.13409 3.85669 7.90813 3.81725Z" fill="#414958"/>
<path fill-rule="evenodd" clip-rule="evenodd" d="M3.67969 15.1843C3.73676 14.8762 3.78826 14.6377 4.18359 14.8386C4.36826 14.9323 4.58123 14.8349 4.78075 14.7908C4.90603 14.7634 5.04338 14.749 5.16773 14.7718C5.26331 14.789 5.34822 14.8794 5.33802 14.9982C5.32781 15.1235 5.21645 15.0924 5.1371 15.1105C4.66197 15.2172 4.18173 15.194 3.67969 15.1843Z" fill="#414958"/>
<path fill-rule="evenodd" clip-rule="evenodd" d="M11.5239 12.4116C11.2571 12.251 10.9922 12.2905 10.7467 12.2213C10.601 12.1801 10.4642 12.1763 10.3514 12.3174C10.2721 12.4172 10.131 12.5512 10.0368 12.4069C9.97743 12.3155 10.015 12.0826 10.0971 11.9917C10.3329 11.7281 10.6725 11.8047 10.963 11.8599C11.2135 11.9072 11.4989 12 11.5239 12.4116Z" fill="#414958"/>
<path fill-rule="evenodd" clip-rule="evenodd" d="M5.69336 15.0009C5.86829 14.7944 6.61996 14.7703 6.72761 14.9624C6.80231 15.0955 6.76937 15.2129 6.57078 15.2148C6.26036 15.218 5.99635 15.0621 5.69336 15.0009Z" fill="#414958"/>
<path fill-rule="evenodd" clip-rule="evenodd" d="M6.31281 15.7811C5.97038 15.93 5.73978 15.6363 5.4521 15.6363C5.38436 15.6368 5.37415 15.5658 5.37136 15.5041C5.36672 15.4099 5.4224 15.3844 5.50175 15.3691C5.86088 15.3004 6.10541 15.4609 6.31281 15.7811Z" fill="#414958"/>
<path fill-rule="evenodd" clip-rule="evenodd" d="M9.66555 12.1965C9.62703 12.3826 9.48273 12.441 9.31662 12.4503C9.21361 12.4559 9.05121 12.5111 9.05678 12.3237C9.06142 12.1478 9.16489 12.0276 9.35559 12.0132C9.49572 12.0026 9.61451 12.0351 9.66555 12.1965Z" fill="#414958"/>
<path fill-rule="evenodd" clip-rule="evenodd" d="M11.5411 11.4723C11.3532 11.5075 11.1374 11.566 11.1096 11.4537C11.0581 11.2431 10.9569 10.9967 11.1411 10.7665C11.162 11.0547 11.3393 11.2509 11.5411 11.4723Z" fill="#2F2F2F"/>
<path fill-rule="evenodd" clip-rule="evenodd" d="M10.5914 11.4089C10.5199 11.6201 10.4067 11.704 10.1816 11.6423C10.2684 11.4642 10.39 11.3946 10.5914 11.4089Z" fill="#4A4A4A"/>
<path fill-rule="evenodd" clip-rule="evenodd" d="M9.42264 14.5272C9.20873 14.6237 9.08299 14.6149 8.96189 14.5559C8.95168 14.5513 8.95771 14.4715 8.97859 14.4548C9.12707 14.3397 9.23611 14.446 9.42264 14.5272Z" fill="#414958"/>
<path fill-rule="evenodd" clip-rule="evenodd" d="M8.54146 14.7737C8.28487 14.9653 8.15263 14.9435 7.99023 14.834C8.14243 14.6967 8.28441 14.7667 8.54146 14.7737Z" fill="#414958"/>
<path fill-rule="evenodd" clip-rule="evenodd" d="M7.47529 10.1761C7.41729 10.3134 7.38574 10.4257 7.32681 10.5203C7.22473 10.6818 7.1208 10.8006 6.9352 10.576C6.81224 10.4275 6.63221 10.3259 6.44336 10.1761H7.47529Z" fill="white"/>
<path fill-rule="evenodd" clip-rule="evenodd" d="M6.31387 10.7805C6.15194 10.7508 5.86983 10.8153 5.87307 10.5833C5.87586 10.387 6.15194 10.4409 6.31712 10.4307C6.48834 10.42 6.73286 10.4084 6.72915 10.6242C6.7259 10.7865 6.4823 10.7703 6.31387 10.7805Z" fill="white"/>
<path fill-rule="evenodd" clip-rule="evenodd" d="M8.5984 4.76615C8.16688 4.75595 7.83188 4.65015 7.42031 4.61907C7.72887 4.41212 8.32325 4.49054 8.81973 4.47151C8.77333 3.41128 8.3149 1.96407 7.64117 1.41655C7.52749 1.32422 7.32009 1.19569 7.16279 1.23281C6.83196 1.3103 6.99065 1.8026 6.75772 2.04202C6.59718 1.77801 6.81943 1.27271 7.05236 1.15903C7.71773 1.08062 8.17709 1.73578 8.45131 2.26289C8.79421 2.92223 8.95661 3.62193 8.96635 4.47151C9.60991 4.57684 10.0233 4.91138 10.5124 5.17122C10.6873 5.45009 11.2808 5.50669 11.175 5.94424C11.0655 6.03287 11.0274 5.83428 10.9912 5.79669C10.7773 5.57676 10.505 5.33826 10.1811 5.17122C9.7055 4.92484 9.16772 4.84874 8.5984 4.76615Z" fill="white"/>
<path fill-rule="evenodd" clip-rule="evenodd" d="M4.36579 5.75992C4.45905 6.32878 4.55881 6.89207 4.73374 7.37974C4.45255 7.15795 4.24004 6.86702 3.99737 6.60672C3.62896 7.25631 3.3255 7.9718 2.93018 8.59448C2.69307 8.41399 2.42396 8.26597 2.23047 8.04233C2.51397 6.8531 3.38397 6.25083 4.36579 5.75992Z" fill="#EE3338"/>
<path fill-rule="evenodd" clip-rule="evenodd" d="M13.6426 15.8458C13.9474 15.599 14.1279 15.3234 14.5627 15.2566C15.3557 15.135 16.1491 15.8797 16.9922 15.7721C17.2952 15.7335 17.8102 15.5257 17.8385 15.1461C17.9072 14.2218 16.0312 14.4362 16.7347 15.2937C17.066 15.3433 17.1133 15.1081 17.3235 15.0357C17.1894 15.7623 16.3352 15.4621 16.2925 15.0357C16.2141 14.2497 17.4863 14.052 17.8756 14.594C17.5267 13.9796 18.0478 13.3092 18.722 13.6367C18.8649 13.8349 18.8097 14.2919 18.5011 14.2627C18.2988 14.1847 18.6788 14.1137 18.5749 13.8947C18.5396 13.7569 18.2756 13.6975 18.1327 13.7848C17.8056 14.0195 18.1095 14.3374 18.1698 14.6311C18.315 15.3378 17.954 15.8927 17.1393 15.9558C17.9531 16.4894 17.2645 17.8025 16.2558 17.281C16.1607 17.1492 16.0841 16.8416 16.2192 16.6922C16.369 16.5836 16.6479 16.6151 16.7713 16.7288C16.6349 16.8021 16.3384 16.7135 16.3662 16.9497C16.6442 17.3023 17.2219 17.0012 17.2492 16.6922C17.3017 16.115 16.5017 16.0639 15.8507 15.8087C15.2564 15.5763 14.6699 15.0464 14.2685 15.5879C15.1524 15.4408 15.7194 15.927 15.5932 16.913C15.5139 15.8222 14.6722 15.4756 13.6426 15.8825V15.8458Z" fill="white"/>
<path fill-rule="evenodd" clip-rule="evenodd" d="M15.2241 14.0056C15.6955 13.9652 15.8398 14.3833 15.592 14.6682C15.4607 14.5907 15.5623 14.2807 15.3712 14.2631C15.1967 14.2478 15.1916 14.4018 15.0403 14.4102C15.0496 15.1294 15.7572 14.8157 15.9604 14.4839C16.0286 15.3516 14.3866 15.243 14.7824 14.3735C14.8742 14.1953 15.0176 14.0687 15.2241 14.0056Z" fill="white"/>
<path fill-rule="evenodd" clip-rule="evenodd" d="M10.5498 15.4409C11.1229 16.6464 8.33333 17.3099 7.67863 16.7656C7.59975 16.7002 7.48375 16.451 7.49489 16.361C7.55335 15.891 8.42242 16.0859 8.96715 16.0302C9.68913 15.9555 9.91185 15.3931 10.5498 15.4409Z" fill="white"/>
<path fill-rule="evenodd" clip-rule="evenodd" d="M5.72759 19.6739C6.36048 19.7278 7.21748 19.7375 7.8991 19.821C8.34732 19.8762 8.7561 20.073 9.00387 20.0419C9.45813 19.9848 9.68827 19.3747 10.0344 18.9747C10.2613 18.7116 10.6919 18.365 10.9545 18.275C11.2496 18.1748 11.7025 18.2541 11.9484 18.0912C12.147 17.9595 12.2198 17.5985 12.4268 17.3915C12.7414 17.0765 13.8225 16.722 14.3779 17.2078C14.8581 17.6282 14.5505 18.385 14.3041 19.0109C13.7037 19.4786 13.1 19.9421 12.5372 20.447C11.5753 20.7857 10.4687 20.9796 9.85021 21.6617C7.66385 21.7007 5.8756 21.342 4.62327 20.447C3.80432 20.9049 2.95659 20.304 2.34087 20.0052C2.28565 20.2196 2.307 20.5115 2.15712 20.6312C1.50799 20.3839 1.90285 19.396 2.34087 19.1956C2.36871 18.8179 2.53064 18.5752 2.74594 18.3854H3.62939C4.19268 18.7422 4.64044 19.2146 5.065 19.7106H5.35964C5.47146 19.6874 5.67655 19.7579 5.72759 19.6739Z" fill="white"/>
<path fill-rule="evenodd" clip-rule="evenodd" d="M17.5795 13.2691C17.4839 13.3327 17.4069 13.4158 17.3953 13.5638C18.1201 14.2036 18.1952 12.3193 17.2849 12.8641C17.3438 12.6961 17.3809 12.5768 17.3587 12.4228C17.283 11.9041 16.6042 12.0502 16.4019 11.6493C16.445 11.595 16.4334 11.4851 16.549 11.5022C16.6933 11.4809 16.6427 11.654 16.7332 11.6864C16.8241 11.035 16.0706 11.4387 16.291 11.8702C16.3629 12.0108 16.5522 11.9941 16.7332 12.091C16.156 12.1105 16.1634 13.1564 16.6961 13.0854C16.8831 13.0603 17.1652 12.6219 16.8065 12.4961C16.8552 12.6219 16.8942 12.9156 16.6961 12.9012C15.9871 12.62 17.0343 11.7894 17.1744 12.4961C17.3415 13.3359 15.5686 13.8296 16.2543 14.7414C16.2381 14.0584 16.852 13.7081 17.3587 13.9688C16.9991 13.6041 16.3606 13.8171 16.2177 14.263V14.0055C16.7248 13.6904 16.9615 13.1049 17.6533 12.975C17.8677 13.0487 17.8421 13.5225 17.6166 13.5638C17.4482 13.5215 17.6255 13.2798 17.5795 13.2691ZM18.6101 11.8702C18.5019 12.1008 18.147 12.2627 18.0584 12.4595C18.3201 12.4386 18.4551 12.0971 18.6101 12.091C18.5391 12.4256 18.3075 12.7945 18.2788 13.0483C18.8379 12.5778 19.2249 10.7812 18.4263 10.435C18.0171 10.2573 17.3531 10.3696 17.1378 10.6926C16.6747 11.3872 17.5113 12.2326 18.2054 11.6864C18.23 11.5746 18.3363 11.3538 18.2421 11.2447C18.2022 11.6809 17.6941 11.7649 17.322 11.5765C17.3271 11.338 17.2594 11.1723 17.2482 10.9501C17.8649 10.1218 19.1153 10.7979 18.6101 11.8702ZM20.5978 3.80915C18.1516 4.02398 16.3485 5.78485 15.8493 7.96889C14.9422 8.18001 14.48 9.81467 15.6655 10.1404C15.5361 9.87499 15.1533 9.6699 15.1134 9.25741C15.0224 8.31132 16.4757 7.77865 16.9907 8.59436C17.0153 8.77856 16.9568 8.87972 16.954 9.03608C17.4979 8.61895 16.838 7.91043 16.291 7.89511C16.4696 5.86466 18.0069 4.76962 19.5872 4.14137C18.6667 4.80257 17.4204 5.71061 17.322 7.08544C17.2728 7.77169 17.6292 8.40133 17.5795 9.10986C17.5141 10.0462 15.9769 10.2119 16.0706 9.03608C16.2144 8.86116 16.5151 8.8426 16.6961 8.70479C16.2896 8.41293 15.8112 8.86116 15.776 9.22029C15.7277 9.7112 16.1833 10.0383 16.5123 10.1037C17.251 10.2504 17.8036 9.69217 17.9479 9.22029C18.1201 8.6556 17.7247 7.81716 18.2421 7.60047C18.2305 7.48865 18.1052 7.38054 18.2054 7.26918C18.314 7.15736 18.5256 7.14761 18.7576 7.15921C18.0305 6.73976 17.8064 7.74385 17.6899 8.30018C17.1202 6.40104 18.2908 5.40066 19.2731 4.58217C19.9631 4.00728 20.64 3.79894 21.7393 3.92004C21.3792 3.74976 21.0001 3.77389 20.5978 3.80915ZM15.1134 10.5088C15.1639 10.5501 15.182 10.5404 15.1871 10.4717C15.2182 10.0513 14.6712 9.57525 14.4508 9.14651C14.1817 8.62266 14.0517 8.14428 13.862 7.71091C14.5088 6.6465 15.4785 5.61085 16.7332 4.80303C17.9029 4.0495 19.3896 3.27277 20.9658 3.29365C21.9508 3.3071 22.5967 3.73073 22.8064 4.50839V5.09767H22.7698C22.7076 5.67581 22.0599 6.16765 21.4813 5.90735C21.1036 5.73799 21.1732 5.13757 21.1133 4.80303C20.2874 4.53716 19.6837 5.12876 19.3831 5.61271C18.4277 7.15457 19.0244 9.79565 19.2731 11.7231C19.4564 13.1457 19.4596 14.6059 19.0889 15.9195C18.7437 17.1417 18.0816 18.0534 17.2849 18.7169C16.4256 19.4333 15.4062 19.7637 13.8248 19.895C13.8996 19.8101 13.9571 19.708 14.0457 19.6375C15.0122 19.457 15.602 17.9458 15.15 17.0238C14.8405 16.3914 13.739 16.1807 12.9785 16.5454C13.223 16.3482 13.4226 16.1056 13.6411 15.8828C14.6707 15.4759 15.5124 15.8225 15.5918 16.9134C15.718 15.9274 15.1514 15.4411 14.267 15.5882C14.6684 15.0467 15.2549 15.5766 15.8493 15.8091C16.5003 16.0638 17.3002 16.1153 17.2482 16.6925C17.2208 17.0015 16.6427 17.3022 16.3648 16.95C16.3369 16.7139 16.6334 16.802 16.7698 16.7292C16.6464 16.6155 16.3676 16.5839 16.2177 16.6925C16.0827 16.8415 16.1592 17.1491 16.2543 17.2809C17.2631 17.8029 17.9516 16.4893 17.1378 15.9561C17.9526 15.893 18.3136 15.3381 18.1683 14.6314C18.1085 14.3377 17.8041 14.0199 18.1312 13.7842C18.2746 13.6974 18.5381 13.7568 18.5739 13.8951C18.6778 14.1136 18.2973 14.1851 18.4996 14.263C18.8082 14.2922 18.8639 13.8347 18.7205 13.6371C18.0458 13.309 17.5252 13.98 17.8742 14.5943C17.4849 14.0519 16.213 14.25 16.291 15.036C16.3337 15.462 17.1879 15.7627 17.322 15.036C17.1123 15.108 17.0649 15.3437 16.7332 15.2936C16.0298 14.4366 17.9062 14.2222 17.8375 15.1465C17.8092 15.5256 17.2937 15.7339 16.9907 15.7724C16.1481 15.88 15.3546 15.1349 14.5612 15.2569C14.1264 15.3237 13.946 15.5989 13.6411 15.8462C13.932 15.462 14.2123 15.0676 14.3037 14.4839C14.4401 14.4245 14.6345 14.4222 14.7821 14.3734C14.3863 15.2434 16.0284 15.3516 15.9602 14.4839C15.7569 14.8156 15.0493 15.1298 15.0401 14.4101C15.1913 14.4022 15.1964 14.2477 15.3709 14.263C15.5621 14.2811 15.4604 14.5911 15.5918 14.6681C15.8395 14.3837 15.6948 13.9651 15.2238 14.0055C15.7709 13.5044 16.097 12.1221 15.7022 11.2447C15.5653 10.9394 15.2349 10.7199 15.1134 10.5088Z" fill="#EE3338"/>
<path fill-rule="evenodd" clip-rule="evenodd" d="M14.0459 19.6372C14.3494 19.0512 15.0217 18.6855 15.0403 17.907C15.0788 16.2449 12.8098 16.4347 11.9844 17.3181C12.1264 17.0175 12.6317 16.7632 12.9787 16.5451C13.7388 16.1809 14.8407 16.3911 15.1502 17.0235C15.6022 17.9455 15.0124 19.4567 14.0459 19.6372Z" fill="white"/>
<path fill-rule="evenodd" clip-rule="evenodd" d="M11.0294 17.576C11.0619 17.6414 11.1788 17.6228 11.1394 17.7597C10.6067 18.2065 9.8054 19.173 8.96788 18.5332C9.20267 18.3875 9.50241 18.3063 9.77802 18.2019C9.43838 18.1216 9.04584 18.2766 8.67371 18.3485C8.14986 18.4506 7.67658 18.562 7.01724 18.5332C5.7598 18.4775 4.83227 18.014 4.14602 17.4289C4.08477 17.5393 4.04023 17.666 3.92516 17.7231C3.35073 17.7133 2.7828 17.7054 2.41577 17.3918C2.08355 17.1073 1.69704 16.2489 1.75318 15.7353C1.79216 15.3817 2.01302 15.0811 2.342 14.9256C2.69649 15.05 2.88998 15.3349 3.22591 15.4778C3.11223 16.2828 4.23696 16.1659 4.18268 15.4778C4.09637 15.3298 3.8885 15.5989 3.63052 15.5144C3.54561 15.1576 3.33356 14.9284 3.11548 14.7048C3.23658 13.6436 3.49735 12.4251 3.18879 11.3552C3.77761 10.9055 4.11076 10.6592 4.69771 10.6554C5.48001 10.6513 6.36346 11.1765 7.31141 10.9501C8.27699 10.7199 8.66072 10.1539 9.29918 9.58825C9.69358 9.2384 11.3626 8.63241 12.0233 9.10987C12.4103 9.3892 12.6186 10.268 13.2742 10.6926C13.7494 10.9993 14.5832 11.2972 14.0106 12.0544C13.8686 12.1198 13.645 12.0887 13.4956 12.0544C13.4561 12.2405 13.6041 12.24 13.6427 12.3486C14.6273 12.536 14.3888 11.4999 14.747 11.0605C15.1609 10.9547 15.4471 11.0772 15.52 11.5022C15.6838 12.4609 15.2291 14.6375 14.1215 13.9689C13.8343 15.9149 12.2818 16.5951 11.0294 17.576ZM3.81473 18.1277C4.03791 18.0567 4.26295 17.9875 4.29311 17.7231C4.8977 18.4706 5.76862 18.7833 7.16432 18.8636C7.61579 18.8905 8.15635 18.7522 8.52569 18.8636C8.79342 18.9448 8.89828 19.4102 9.22587 19.3795C8.92473 20.0008 8.09789 19.4839 7.16432 19.4162C6.66692 19.3805 6.16023 19.3986 5.76537 19.4162C5.5756 19.425 5.27168 19.4881 5.1399 19.4533C4.62255 19.316 4.25181 18.3416 3.81473 18.1277ZM12.4284 17.3918C12.7425 17.0767 13.8236 16.7218 14.379 17.2076C14.8593 17.6279 14.5516 18.3847 14.3052 19.0111C13.7053 19.4788 13.1012 19.9424 12.5383 20.4467C11.5765 20.7854 10.4698 20.9799 9.85134 21.6619C7.66544 21.7009 5.8772 21.3418 4.6244 20.4467C3.80545 20.9052 2.95772 20.3043 2.342 20.005C2.28678 20.2194 2.30859 20.5112 2.15825 20.6309C1.50912 20.3841 1.90398 19.3962 2.342 19.1953C2.36984 18.8181 2.53177 18.575 2.74707 18.3852H3.63052C4.19428 18.7425 4.64157 19.2143 5.06613 19.7108H5.36077C5.47259 19.6876 5.67768 19.7577 5.72872 19.6737C6.36161 19.728 7.21861 19.7373 7.90023 19.8213C8.34891 19.876 8.75723 20.0732 9.005 20.0417C9.45926 19.9846 9.6894 19.3749 10.0355 18.9749C10.2624 18.7114 10.693 18.3648 10.9556 18.2752C11.2508 18.1745 11.7041 18.2543 11.9495 18.091C12.1486 17.9592 12.221 17.5987 12.4284 17.3918ZM1.6061 13.7842C1.1254 13.2348 1.11565 12.2135 1.05394 11.2447V10.3242C1.10916 9.32424 1.14952 8.30947 1.75318 7.85847C2.03854 8.38325 2.4283 8.8027 2.89462 9.14652C3.1707 8.31782 3.71775 7.76103 3.96181 6.90124C4.62487 7.35457 5.10696 7.98885 5.65494 8.55725C5.83683 8.18698 6.01871 7.81671 6.24422 7.49052C6.12683 7.49609 5.97324 7.57636 5.8758 7.49052C5.82198 7.3722 5.75006 7.27244 5.76537 7.08498C5.64056 7.01353 5.40345 7.05482 5.28745 6.97455C5.38072 6.70033 5.7366 6.6878 5.94958 6.53329C5.66654 6.41126 5.27353 6.39966 4.99282 6.27531C5.15382 6.73977 5.3487 7.17082 5.32411 7.82135C4.50423 6.8799 4.28986 4.66941 4.66106 3.10991C5.10371 2.69649 5.78254 2.0455 6.61217 2.37355C6.44559 4.51583 7.42463 5.51203 8.34195 6.56948C7.92528 6.65996 7.78283 6.28505 7.60605 6.09156C7.36292 5.82616 7.04137 5.62292 6.79637 5.3552C6.41961 5.5923 6.08228 5.86884 5.65494 6.05444C5.88787 6.26324 6.47714 6.11569 6.75925 6.27531C6.67249 6.55649 6.31939 6.57134 6.13332 6.75415C6.32356 6.79684 6.31567 7.03858 6.35465 7.23253C6.65068 6.9894 6.78199 6.58015 6.94346 6.20153C7.35364 6.39827 7.76752 6.63537 8.19486 6.82746C8.63009 7.02281 9.04676 7.21722 9.37295 7.52671C9.63372 6.86737 9.87082 6.18436 10.2188 5.61272C10.7246 5.96675 11.0392 6.51102 11.4712 6.93789C11.4916 6.24654 11.4266 5.47074 11.6554 4.98725C12.1235 5.62942 12.5031 6.32449 12.9063 7.01121C13.3053 7.69096 13.7081 8.39763 13.9002 9.25696C13.0552 9.08388 12.4984 8.62267 11.5078 8.59437C11.3677 8.58045 11.2048 8.5888 11.1027 8.59437C9.43374 8.64726 9.0746 10.2945 7.38519 10.4346C6.5653 10.5033 5.8178 10.3525 5.1399 10.3979C4.29821 10.4545 3.53818 10.6257 3.04171 10.9872C2.21486 11.589 2.16336 12.6678 1.6061 13.7842ZM6.77178 2.09005C7.26594 1.68683 7.59399 2.40046 7.75314 2.77862C7.52299 2.61622 7.22418 2.15315 6.77178 2.09005ZM7.05389 1.1588C7.71927 1.08039 8.17816 1.73602 8.45285 2.26312C8.79574 2.92246 8.95814 3.6217 8.96788 4.47175C9.61145 4.57661 10.0253 4.91162 10.5139 5.17099C10.8939 5.29395 11.1487 5.54219 11.434 5.75981C11.3677 6.00062 11.3338 6.27345 11.2869 6.53329C10.9199 6.13936 10.6002 5.69809 10.2188 5.31854C10.1497 5.35891 10.0453 5.36541 9.96177 5.39185C9.70796 5.87441 9.50751 6.41033 9.29918 6.93789C8.42037 6.62609 7.85243 5.80853 7.71648 4.87682C8.01066 4.83924 8.37211 4.86986 8.59993 4.76639C8.16842 4.75618 7.83295 4.64992 7.42231 4.61884C7.7304 4.41236 8.32432 4.49077 8.8208 4.47175C8.77486 3.41105 8.31643 1.9643 7.64271 1.41632C7.52903 1.32399 7.32116 1.19546 7.16432 1.23258C6.83349 1.31007 6.99172 1.80283 6.75925 2.04226C6.59825 1.77824 6.8205 1.27248 7.05389 1.1588ZM12.9801 16.545C13.2246 16.3482 13.4241 16.1056 13.6427 15.8828V15.8457C13.9336 15.4615 14.2138 15.0676 14.3052 14.4839C14.4417 14.4245 14.6361 14.4222 14.7836 14.3735C14.8755 14.1953 15.0189 14.0686 15.2254 14.0055C15.7724 13.5044 16.0986 12.1221 15.7037 11.2447C15.5669 10.9389 15.2365 10.7199 15.1149 10.5088C13.6459 8.83657 13.2988 6.04331 11.4712 4.72927C11.3677 4.94549 11.5004 5.39696 11.3974 5.61272C10.4879 3.97759 9.91861 0.297161 7.42231 0.0178337C5.88183 -0.154308 4.71071 0.939796 5.28745 2.41021C4.93482 2.65612 4.51583 2.74753 4.33023 3.18323C4.03234 3.88015 4.39147 4.96127 4.36688 5.75981C4.46015 6.32867 4.55991 6.89196 4.73483 7.37962C4.45365 7.15783 4.2416 6.8669 3.99847 6.6066C3.63005 7.2562 3.3266 7.97168 2.93127 8.59437C2.69417 8.41387 2.42505 8.26632 2.23203 8.04221C2.05989 7.7601 1.84134 7.52485 1.67987 7.23253C1.21448 7.96936 0.956965 8.91406 0.759766 9.91955V11.0605C0.878549 12.1115 1.19128 13.123 1.49567 14.0422C1.59728 14.3493 1.78242 14.7488 1.7903 14.9989C1.80654 15.5274 1.4024 16.0137 1.49567 16.545C1.62698 17.2934 2.73593 17.8423 3.44678 18.0544C3.15863 18.1467 2.83476 18.2033 2.48955 18.2386C2.18145 18.8501 1.90445 19.4937 1.6061 20.1154C1.69054 20.4115 1.7917 20.6908 1.93739 20.9251C2.32112 21.0448 2.87467 20.8898 2.78372 20.6676C3.15863 20.7984 3.46766 20.9033 3.85138 20.9251C4.15252 20.9423 4.44112 20.83 4.73483 20.8518C5.23085 20.8894 5.68232 21.294 6.17044 21.5144C6.63815 21.725 7.24599 21.9255 7.82691 21.9556C8.1893 21.9747 8.6932 21.9009 9.15209 21.919C9.37991 21.9287 9.66434 22.0262 9.88846 21.9932C10.1812 21.9491 10.4986 21.6081 10.8452 21.4406C11.9556 20.9033 13.0938 20.6694 13.8264 19.895C13.9011 19.8097 13.9586 19.708 14.0473 19.637C14.3512 19.0515 15.0231 18.6859 15.0416 17.9068C15.0801 16.2452 12.8112 16.4345 11.9862 17.318C12.1282 17.0178 12.6335 16.763 12.9801 16.545Z" fill="#373535"/>
<path fill-rule="evenodd" clip-rule="evenodd" d="M10.5123 5.17109C10.8923 5.29404 11.1475 5.54228 11.4324 5.7599C11.3665 6.00071 11.3326 6.27308 11.2853 6.53338C10.9183 6.13945 10.5991 5.69819 10.2181 5.31817C10.148 5.359 10.0446 5.3655 9.96059 5.39195C9.70632 5.87451 9.50634 6.40996 9.29754 6.93799C8.41873 6.62618 7.85126 5.80862 7.71484 4.87691C8.00902 4.83933 8.37047 4.86995 8.5983 4.76602C9.16762 4.84861 9.70539 4.9247 10.181 5.17109C10.5049 5.33859 10.7772 5.57708 10.9911 5.79702C11.0273 5.8346 11.1206 5.96684 11.1749 5.94411C11.2807 5.50702 10.8273 5.4235 10.5123 5.17109Z" fill="#EE3338"/>
<path fill-rule="evenodd" clip-rule="evenodd" d="M7.75284 2.77881C7.5227 2.61595 7.22388 2.15288 6.77148 2.08977C7.26564 1.68656 7.59369 2.40111 7.75284 2.77881Z" fill="white"/>
<path fill-rule="evenodd" clip-rule="evenodd" d="M6.31736 2.55752C6.3169 3.07349 6.29695 3.60848 6.39068 4.02979C6.11135 4.01494 5.95359 3.87806 5.65478 3.8827C5.66684 3.57228 6.19812 3.4716 6.28024 3.10968C5.93132 3.00435 5.37963 2.90691 4.99219 2.96259C5.18289 2.72363 5.82182 2.61459 6.31736 2.55752Z" fill="#363535"/>
<path fill-rule="evenodd" clip-rule="evenodd" d="M12.6842 6.86436C12.5311 6.79894 12.7213 7.01191 12.7209 7.01145C12.9928 7.68239 13.3204 8.37978 13.6043 8.9621C12.8183 8.03735 10.6672 8.08514 9.62927 8.7417C8.81681 9.25534 8.54722 10.0859 7.34686 10.1768C5.77855 10.2961 4.05712 9.88313 2.96672 10.5086C2.60713 10.7146 1.98166 11.6681 1.82575 12.0546C1.68702 12.3971 1.6912 12.7604 1.53065 13.0485C1.37289 12.5688 1.32649 11.9772 1.19982 11.4654C1.19797 12.302 1.30933 13.0244 1.60489 13.5636C2.00996 12.7228 2.12271 11.4519 2.93007 10.9132C3.47805 10.548 4.36011 10.3675 5.13823 10.3244C5.81799 10.2868 6.53719 10.4288 7.31021 10.3615C8.91749 10.2209 9.49796 8.63683 10.9911 8.48418C12.1724 8.36261 12.9928 8.88322 13.7148 9.10965C13.4767 8.25589 13.0554 7.58495 12.6842 6.86436ZM11.6903 5.31832C11.5446 5.83475 11.6815 6.63468 11.5799 7.19566C11.0287 6.82632 10.7517 6.18321 10.2176 5.7967C9.92947 6.41614 9.71232 7.10703 9.4084 7.7107C8.77969 7.08801 7.76956 6.84673 7.01557 6.34886C6.74784 7.03465 6.28524 7.56686 5.98503 8.18908C5.88666 8.3937 5.83145 8.6424 5.65374 8.81547C5.16422 8.18815 4.61577 7.62022 4.03392 7.08523C3.7481 7.90372 3.21357 8.47304 2.96672 9.33051C2.40158 9.02427 1.99233 8.56306 1.6782 8.00533C1.58587 8.24476 1.34505 8.53058 1.42069 8.81547C1.45177 8.57651 1.55617 8.4104 1.6782 8.26285C2.10787 8.67071 2.38209 9.42099 3.07716 9.44094C3.38339 8.67952 3.96154 8.19 4.07104 7.23231C4.62366 7.83273 5.14241 8.46748 5.72751 9.03587C6.11402 8.17144 6.66247 7.46802 7.126 6.68062C7.49117 6.85694 7.83406 7.06806 8.23031 7.30609C8.68318 7.57799 9.11145 8.04756 9.70258 7.93156C9.93875 7.30934 10.1253 6.637 10.3285 5.98091C10.8004 6.49038 11.0663 7.20633 11.7641 7.4903C11.7312 6.72192 11.8922 5.94611 11.6903 5.31832ZM6.42676 4.21401C6.13676 4.43951 5.79293 4.61119 5.57996 4.91325C5.98457 4.93877 6.35252 4.99956 6.68427 5.09746C6.62303 4.77869 6.55853 4.46225 6.42676 4.21401ZM4.84406 3.22013C4.79627 4.11935 4.73734 5.33549 4.91737 6.128C5.37766 5.90157 5.83237 5.66864 6.20589 5.35498C5.86021 5.19768 5.29924 5.25568 4.91737 5.13412C5.06492 4.70538 5.4983 4.56154 5.76417 4.25113C5.54052 4.1059 5.04636 4.23257 4.88071 4.0298C5.09647 3.76764 5.4157 3.60803 5.57996 3.2939C5.31734 3.28694 5.12107 3.21317 4.84406 3.22013ZM4.99115 2.96261C5.37858 2.90693 5.93028 3.00483 6.27967 3.10969C6.19708 3.47161 5.66626 3.5723 5.65374 3.88271C5.95301 3.87807 6.11077 4.01495 6.3901 4.0298C6.29591 3.60849 6.31586 3.0735 6.31632 2.55754C5.82077 2.61415 5.18231 2.72411 4.99115 2.96261ZM1.05273 10.3244C1.10795 9.32448 1.14832 8.30972 1.75198 7.85825C2.03734 8.38303 2.4271 8.80295 2.89295 9.1463C3.16903 8.31807 3.71608 7.76127 3.96061 6.90102C4.62366 7.35481 5.10575 7.98909 5.65374 8.55749C5.83562 8.18722 6.01705 7.81649 6.24255 7.4903C6.12562 7.49633 5.97157 7.5766 5.8746 7.4903C5.82077 7.37244 5.74839 7.27268 5.76417 7.08523C5.63935 7.01377 5.40225 7.0546 5.28579 6.97433C5.37951 6.70011 5.73493 6.68758 5.94791 6.53307C5.66534 6.4115 5.27187 6.39944 4.99115 6.27509C5.15262 6.74001 5.34703 7.17107 5.32244 7.82159C4.50302 6.87968 4.28865 4.66965 4.65985 3.10969C5.10251 2.69627 5.78133 2.04528 6.61096 2.37333C6.44439 4.51561 7.42342 5.51181 8.34075 6.56972C7.92361 6.65974 7.78163 6.28483 7.60485 6.09134C7.36171 5.82594 7.0397 5.62317 6.79517 5.35498C6.4184 5.59208 6.08108 5.86862 5.65374 6.05422C5.88666 6.26349 6.47594 6.11593 6.75805 6.27509C6.67128 6.55627 6.31772 6.57158 6.13212 6.75393C6.32236 6.79662 6.31447 7.03836 6.35298 7.23231C6.64947 6.98918 6.78079 6.5804 6.94226 6.20178C7.35243 6.39851 7.76585 6.63561 8.19366 6.82724C8.62889 7.02305 9.04509 7.21747 9.37128 7.52695C9.63205 6.86761 9.86962 6.18461 10.2176 5.6125C10.7229 5.96653 11.0375 6.51126 11.4695 6.93767C11.4899 6.24632 11.4254 5.47051 11.6537 4.98703C12.1223 5.62967 12.5014 6.32473 12.9051 7.01145C13.3041 7.69074 13.7069 8.39788 13.899 9.2572C13.054 9.08366 12.4968 8.62245 11.5066 8.59461C11.4551 8.53336 11.153 8.53336 11.1015 8.59461C9.43207 8.64704 9.07293 10.2942 7.38398 10.4348C6.5641 10.503 5.81613 10.3527 5.13823 10.3982C4.29654 10.4543 3.53698 10.6255 3.04004 10.987C2.21366 11.5893 2.16169 12.6676 1.60489 13.7844C1.12373 13.2346 1.11398 12.2138 1.05273 11.2445V10.3244Z" fill="white"/>
<path fill-rule="evenodd" clip-rule="evenodd" d="M13.7146 9.10981C12.9922 8.88291 12.1723 8.36277 10.991 8.48387C9.49783 8.63653 8.91737 10.2211 7.30962 10.3612C6.53706 10.429 5.81786 10.287 5.13811 10.3241C4.35998 10.3672 3.47792 10.5482 2.92948 10.9134C2.12259 11.4516 2.00984 12.723 1.6043 13.5637C1.3092 13.0246 1.19784 12.3016 1.19923 11.4651C1.32637 11.9773 1.37277 12.5689 1.53053 13.0482C1.6906 12.7601 1.68689 12.3972 1.82516 12.0543C1.98153 11.6683 2.607 10.7148 2.9666 10.5083C4.05699 9.88329 5.77842 10.2962 7.34674 10.177C8.5471 10.0861 8.81622 9.25504 9.62868 8.74186C10.6671 8.0853 12.8182 8.03751 13.6042 8.96226C13.3198 8.37994 12.9922 7.68209 12.7208 7.01161C12.7208 7.01161 12.531 6.7991 12.6841 6.86452C13.0553 7.58465 13.4766 8.25605 13.7146 9.10981Z" fill="#363535"/>
<path fill-rule="evenodd" clip-rule="evenodd" d="M17.2497 10.9499C17.2604 11.1722 17.3286 11.3378 17.324 11.5758C17.6956 11.7647 18.2037 11.6807 18.2441 11.2445C18.3382 11.3536 18.2315 11.5744 18.2069 11.6863C17.5128 12.2324 16.6762 11.387 17.1393 10.6924C17.355 10.3694 18.0186 10.2571 18.4278 10.4349C19.2268 10.781 18.8398 12.5776 18.2807 13.0481C18.309 12.7943 18.541 12.4254 18.612 12.0909C18.457 12.0969 18.3215 12.4384 18.0599 12.4593C18.1485 12.2625 18.5034 12.1006 18.612 11.87C19.1168 10.7977 17.8668 10.1217 17.2497 10.9499Z" fill="white"/>
<path fill-rule="evenodd" clip-rule="evenodd" d="M17.6164 13.5636C17.8419 13.5223 17.8674 13.0486 17.6531 12.9748C16.9613 13.1052 16.7246 13.6903 16.2175 14.0058V14.2629C16.3599 13.817 16.9984 13.604 17.3584 13.9687C16.8518 13.7079 16.2379 14.0582 16.2541 14.7417C15.5683 13.8295 17.3413 13.3358 17.1742 12.4964C17.0341 11.7893 15.9869 12.6198 16.6959 12.901C16.894 12.9154 16.855 12.6222 16.8063 12.4964C17.165 12.6217 16.8828 13.0602 16.6959 13.0852C16.1632 13.1567 16.1558 12.1108 16.733 12.0913C16.552 11.9939 16.3627 12.0106 16.2908 11.8705C16.0699 11.4385 16.8239 11.0348 16.733 11.6867C16.643 11.6538 16.6931 11.4807 16.5488 11.5025C16.4332 11.4854 16.4448 11.5949 16.4017 11.6496C16.604 12.05 17.2828 11.9039 17.3584 12.4226C17.3807 12.5767 17.3436 12.6959 17.2847 12.8644C18.195 12.3192 18.1194 14.203 17.3951 13.5636C17.4067 13.4156 17.4837 13.3325 17.5793 13.269C17.6252 13.2796 17.448 13.5218 17.6164 13.5636Z" fill="white"/>
<path fill-rule="evenodd" clip-rule="evenodd" d="M10.366 11.6493C10.3985 11.769 10.1976 11.9704 10.2184 12.2015C10.5576 11.7922 11.571 11.3797 12.3904 11.7597C12.3575 11.898 12.3074 12.02 12.28 12.1648C11.4504 11.8859 10.4398 12.0896 10.2922 12.8274C10.1999 12.7364 10.0695 12.6826 9.99805 12.5699C10.0055 12.1476 10.1604 11.8729 10.366 11.6493Z" fill="#363535"/>
<path fill-rule="evenodd" clip-rule="evenodd" d="M14.7463 13.2324C14.7774 12.9935 14.8841 12.8301 14.93 12.6065C14.7625 12.6598 14.6154 12.7332 14.4883 12.8278C14.6841 12.6329 15.2005 12.2761 15.0042 11.6864C15.0571 11.6112 15.2103 11.9402 15.2246 12.0543C15.2761 12.4603 15.0098 13.1225 14.7463 13.2324Z" fill="#363535"/>
<path fill-rule="evenodd" clip-rule="evenodd" d="M6.72087 12.8275C7.03082 13.1315 7.22662 13.5486 7.23637 14.1523C6.58863 13.9973 5.9214 13.6122 5.17483 13.8581C4.84724 13.9662 4.68577 14.2734 4.3285 14.2998C4.29834 13.2739 6.11721 13.1375 6.94173 13.6006C6.97467 13.2363 6.81135 13.0688 6.72087 12.8275Z" fill="#363535"/>
<path fill-rule="evenodd" clip-rule="evenodd" d="M12.7584 14.0791C13.0461 14.4619 12.8819 15.0377 12.2063 14.9626C11.6476 14.8995 11.4421 14.3701 10.8078 14.5575C10.2524 14.7218 10.1419 15.3444 9.37218 15.2572C9.14946 15.2317 9.04088 15.1482 8.84786 14.9988C8.94715 16.169 7.80247 15.563 7.01646 15.7356C6.52462 15.8432 6.44621 16.304 6.35341 16.8399C6.10842 17.2311 5.31266 17.2004 5.17578 16.729C5.34885 16.748 5.51775 16.9327 5.72794 16.8399C5.93952 16.7457 5.89312 16.2344 5.9488 16.0302C6.10795 15.4479 6.60211 15.066 7.27398 15.0364C7.84098 15.0108 8.50496 15.4164 8.85667 14.9626C10.013 14.9649 9.85613 13.675 11.1386 13.8211C11.2333 13.8318 11.3609 13.8485 11.4704 13.8949C11.8638 14.062 12.654 15.2651 12.7584 14.0791Z" fill="#363535"/>
<path fill-rule="evenodd" clip-rule="evenodd" d="M5.57993 3.29383C5.41567 3.60842 5.09644 3.76757 4.88022 4.02973C5.04587 4.2325 5.54049 4.10583 5.76367 4.25106C5.49827 4.56147 5.06489 4.70531 4.91734 5.13451C5.29921 5.25608 5.86018 5.19761 6.2054 5.35491C5.83188 5.66904 5.37763 5.9015 4.91734 6.12793C4.73731 5.33542 4.79577 4.11975 4.84357 3.22006C5.12057 3.2131 5.31684 3.28687 5.57993 3.29383Z" fill="#363535"/>
<path fill-rule="evenodd" clip-rule="evenodd" d="M6.68439 5.09741C6.35263 4.99997 5.98422 4.93872 5.58008 4.91367C5.79305 4.61114 6.13688 4.43946 6.42641 4.21396C6.55865 4.4622 6.62268 4.77865 6.68439 5.09741Z" fill="#363535"/>
<path fill-rule="evenodd" clip-rule="evenodd" d="M11.7643 7.49027C11.0665 7.20631 10.8006 6.49036 10.3287 5.98089C10.1255 6.63698 9.93894 7.30931 9.70276 7.93153C9.11163 8.04753 8.68336 7.5775 8.2305 7.30606C7.83424 7.06803 7.49135 6.85692 7.12618 6.68013C6.66265 7.468 6.1142 8.17142 5.72769 9.03585C5.14259 8.46745 4.62384 7.8327 4.07122 7.23229C3.96172 8.18998 3.38358 8.6795 3.07734 9.44092C2.38227 9.42097 2.10758 8.67068 1.67885 8.26283C1.55635 8.41038 1.45149 8.57649 1.42087 8.81499C1.34477 8.53055 1.58605 8.24427 1.67885 8.00531C1.99205 8.56303 2.40176 9.02425 2.96691 9.33049C3.21375 8.47302 3.74828 7.90323 4.0341 7.0852C4.61595 7.62019 5.1644 8.18766 5.65392 8.81499C5.83163 8.64191 5.88684 8.39368 5.98521 8.18905C6.28542 7.56683 6.74802 7.03509 7.01575 6.34884C7.76975 6.84671 8.77987 7.08799 9.40859 7.71067C9.7125 7.10701 9.92966 6.41612 10.2178 5.79668C10.7519 6.18319 11.0289 6.82629 11.5801 7.19563C11.6817 6.63466 11.5448 5.83473 11.6905 5.3183C11.8924 5.94609 11.7314 6.72189 11.7643 7.49027Z" fill="#363535"/>
<path fill-rule="evenodd" clip-rule="evenodd" d="M3.2993 16.2501C3.20836 16.3383 3.03761 16.1949 2.93135 16.1773C2.62279 16.5364 3.12577 16.8375 3.37262 16.9869C2.83902 17.2612 2.52814 16.7127 2.5634 16.1773C2.51654 16.0886 2.44276 16.0274 2.30542 16.0297C2.08363 16.6417 2.5996 17.1275 3.15222 17.2073C2.38616 17.3484 1.74677 16.2 2.30542 15.588C2.807 15.6386 2.98147 16.0163 3.2993 16.2501Z" fill="#363535"/>
<path fill-rule="evenodd" clip-rule="evenodd" d="M12.2798 10.4348C12.11 10.4125 12.0678 10.5178 11.9119 10.5085C11.5268 10.0399 10.5524 10.0079 9.92412 10.3243C9.70094 10.4366 9.62855 10.78 9.37196 10.6556C8.97153 10.4621 9.38124 10.0928 9.6666 9.95638C10.4614 9.5759 12.071 9.40655 12.2798 10.4348Z" fill="#363535"/>
<path fill-rule="evenodd" clip-rule="evenodd" d="M6.09567 11.613C4.8786 11.5271 4.31392 12.4055 3.70283 13.0486C3.65597 12.8375 3.51862 12.7173 3.44531 12.5331C3.71954 11.9359 4.72827 10.8502 5.72772 11.0237C5.9857 11.0687 6.14856 11.2506 6.09567 11.613Z" fill="#363535"/>
<path fill-rule="evenodd" clip-rule="evenodd" d="M7.6788 16.7659C7.59992 16.7 7.48392 16.4508 7.49505 16.3613C7.55305 15.8908 8.42258 16.0857 8.96732 16.03C9.6893 15.9557 9.91155 15.3934 10.55 15.4412C11.1231 16.6462 8.3335 17.3102 7.6788 16.7659ZM10.5871 15.0361C10.2002 14.9493 9.89438 15.3479 9.62991 15.4778C9.21556 15.6811 8.89679 15.7507 8.41516 15.8087H8.04675C7.70339 15.7966 7.39065 15.8152 7.23707 15.9933C7.11968 16.358 7.30203 16.7023 7.42128 16.9496C8.53348 17.5445 10.6089 16.9306 10.8813 15.9933C10.9941 15.605 10.8688 15.0992 10.5871 15.0361Z" fill="#363535"/>
<path fill-rule="evenodd" clip-rule="evenodd" d="M2.30381 15.588C1.74515 16.1996 2.38454 17.3484 3.1506 17.2074C2.59798 17.1271 2.08202 16.6418 2.30381 16.0298C2.44115 16.027 2.51492 16.0887 2.56179 16.1773C2.52652 16.7128 2.8374 17.2608 3.371 16.987C3.12462 16.8371 2.62118 16.5365 2.92974 16.1773C3.03599 16.195 3.20675 16.3383 3.29769 16.2502C2.97985 16.0163 2.80585 15.6382 2.30381 15.588ZM8.04578 15.8089C7.70242 15.7964 7.38968 15.8149 7.2361 15.9931C7.11871 16.3578 7.30152 16.7021 7.42031 16.9499C8.53251 17.5443 10.608 16.9309 10.8803 15.9931C10.9931 15.6047 10.8683 15.099 10.5862 15.0359C10.1992 14.9491 9.89342 15.3477 9.62894 15.4776C9.21459 15.6808 8.89582 15.7509 8.41419 15.8089H8.04578ZM11.4692 13.8949C11.3601 13.8485 11.2325 13.8318 11.1379 13.8211C9.8549 13.675 10.0122 14.9649 8.85545 14.9626C8.50421 15.4164 7.84023 15.0104 7.27276 15.0359C6.60135 15.066 6.10719 15.4475 5.94804 16.0298C5.8919 16.2344 5.93876 16.7453 5.72718 16.8394C5.51653 16.9322 5.34809 16.748 5.17456 16.729C5.3119 17.2004 6.10766 17.2311 6.35265 16.8394C6.44591 16.304 6.52386 15.8432 7.01524 15.7351C7.80171 15.5621 8.91809 16.1328 8.81926 14.9626C9.01228 15.112 9.14823 15.2312 9.37095 15.2567C10.1412 15.344 10.2516 14.7213 10.807 14.5575C11.4408 14.37 11.6469 14.8995 12.2055 14.9626C12.8811 15.0377 13.0449 14.4619 12.7577 14.0791C12.6533 15.2651 11.8631 14.062 11.4692 13.8949ZM6.94193 13.6003C6.1174 13.1377 4.29807 13.2741 4.32823 14.2995C4.68597 14.2731 4.84698 13.9659 5.17456 13.8578C5.9216 13.6119 6.58882 13.997 7.2361 14.152C7.22636 13.5483 7.03101 13.1312 6.72106 12.8277C6.81108 13.0685 6.97441 13.236 6.94193 13.6003ZM15.2238 12.0542C15.2094 11.9401 15.0559 11.6111 15.003 11.6863C15.1992 12.276 14.6828 12.6324 14.4875 12.8277C14.6141 12.7331 14.7612 12.6593 14.9292 12.6064C14.8828 12.83 14.7761 12.9934 14.745 13.2323C15.009 13.1224 15.2749 12.4602 15.2238 12.0542ZM9.99689 12.5697C10.0683 12.6825 10.1987 12.7363 10.2911 12.8277C10.4386 12.0895 11.4492 11.8858 12.2793 12.1647C12.3062 12.0204 12.3563 11.8979 12.3893 11.7601C11.5698 11.38 10.5565 11.7921 10.2173 12.2018C10.1964 11.9707 10.3973 11.7693 10.3648 11.6492C10.1593 11.8733 10.0043 12.1475 9.99689 12.5697ZM5.72718 11.0237C4.72819 10.8502 3.71946 11.935 3.44478 12.5331C3.51809 12.7173 3.6559 12.8375 3.70276 13.0481C4.31338 12.4055 4.87806 11.5276 6.09513 11.613C6.14849 11.2506 5.98563 11.0687 5.72718 11.0237ZM9.66559 9.95604C9.38023 10.0925 8.97052 10.4618 9.37095 10.6557C9.62801 10.7801 9.69993 10.4367 9.92311 10.324C10.5518 10.008 11.5262 10.04 11.9113 10.5082C12.0672 10.5175 12.109 10.4121 12.2793 10.4349C12.0705 9.4062 10.4604 9.57602 9.66559 9.95604ZM14.0091 12.0542C13.8666 12.1197 13.643 12.0886 13.494 12.0542C13.4546 12.2408 13.6026 12.2398 13.6411 12.3489C14.6257 12.5359 14.3872 11.4998 14.745 11.0608C15.1593 10.9546 15.4451 11.0775 15.518 11.5021C15.6823 12.4607 15.2275 14.6373 14.1195 13.9687C13.8328 15.9147 12.2798 16.5949 11.0279 17.5758C11.0604 17.6412 11.1773 17.6227 11.1379 17.76C10.6052 18.2068 9.8034 19.1734 8.96635 18.533C9.20113 18.3873 9.50087 18.3061 9.77602 18.2017C9.43684 18.1215 9.04384 18.2764 8.67217 18.3484C8.14832 18.4504 7.67504 18.5618 7.01524 18.533C5.7578 18.4778 4.83074 18.0143 4.14448 17.4287C4.08324 17.5392 4.03869 17.6663 3.92362 17.7234C3.34919 17.7132 2.78126 17.7053 2.41424 17.3916C2.08202 17.1072 1.69504 16.2488 1.75165 15.7351C1.79062 15.382 2.01149 15.0809 2.34046 14.9255C2.69496 15.0498 2.88844 15.3347 3.22391 15.4776C3.1107 16.2826 4.23543 16.1657 4.18114 15.4776C4.09437 15.3296 3.88697 15.5987 3.62898 15.5143C3.54407 15.157 3.33202 14.9282 3.11395 14.7046C3.23459 13.6439 3.49535 12.425 3.18726 11.355C3.77607 10.9058 4.10922 10.659 4.69618 10.6557C5.47848 10.6511 6.36193 11.1759 7.30988 10.9504C8.27546 10.7198 8.65918 10.1542 9.29764 9.58809C9.69204 9.23823 11.361 8.63225 12.0213 9.10971C12.4087 9.3895 12.6171 10.2683 13.2727 10.6924C13.7478 10.9996 14.5812 11.297 14.0091 12.0542Z" fill="white"/>
<path fill-rule="evenodd" clip-rule="evenodd" d="M12.207 6.64355C12.298 6.63845 12.4455 6.78785 12.4887 6.83008C12.4516 6.70062 12.3866 6.5953 12.3481 6.52477C12.3077 6.45285 12.221 6.56838 12.207 6.64355Z" fill="#AD9050"/>
<path fill-rule="evenodd" clip-rule="evenodd" d="M11.9098 6.20522C11.9158 6.16253 12.0063 6.12495 12.0588 6.12773C12.0588 6.20197 12.0221 6.23863 12.0221 6.31194C12.0954 6.24744 12.0527 6.25765 12.165 6.23074C12.2346 6.34906 12.1381 6.44557 12.2796 6.43861C12.2402 6.2196 11.9998 5.90548 11.8379 5.68647C11.9145 5.78113 11.823 6.12031 11.9098 6.20522Z" fill="#AD9050"/>
<path fill-rule="evenodd" clip-rule="evenodd" d="M10.7707 6.6804C10.6515 6.59085 10.5962 6.43866 10.4761 6.34911C10.4649 6.4832 10.4821 6.58853 10.5132 6.6804C10.6171 6.64189 10.7656 6.74072 10.7707 6.6804Z" fill="#AD9050"/>
<path fill-rule="evenodd" clip-rule="evenodd" d="M8.48794 8.6683C8.06385 8.62422 7.9033 9.03996 7.75204 9.14668C7.88706 8.82792 8.05039 8.53745 8.00956 8.04237C7.62955 7.59832 6.93773 8.45254 7.56783 8.59452C7.71863 8.58153 7.73302 8.19641 7.56783 8.18945C8.07127 8.22843 7.76318 8.79868 7.4574 8.77827C7.25324 8.76481 7.2268 8.56344 7.08899 8.41032C7.03563 8.61401 6.67649 8.34257 6.90525 8.26277C6.88344 8.35881 6.92009 8.39593 7.01568 8.37366C7.06347 8.13517 6.80873 8.18017 6.72104 8.26277C6.72104 8.53281 7.03192 8.49245 7.12611 8.6683C7.04352 8.59592 6.8491 8.63582 6.75769 8.6683C6.70944 8.79404 6.84029 8.92489 6.90525 8.81539C6.84539 8.82606 6.80595 8.76528 6.86859 8.74161C6.95397 8.7546 7.0412 8.76528 7.01568 8.8887C7.56273 8.8307 7.19153 9.6311 6.86859 9.29377C7.06254 9.31604 7.15998 9.2418 7.19988 9.11003C6.97392 8.91793 6.61246 9.1026 6.72104 9.47798C7.15163 9.787 7.44627 9.16571 7.71492 8.96248C7.56969 9.11374 7.49267 9.49839 7.71492 9.62506C7.9279 9.6311 8.14969 9.48494 8.08334 9.33043C7.92697 9.26315 7.91212 9.52391 7.86247 9.44086C7.83092 9.26222 7.94785 9.23206 8.04622 9.18334C8.11582 9.19123 8.23738 9.33089 8.26708 9.25711C8.21372 9.17684 8.31626 8.93881 8.48794 8.96248C8.397 9.03579 8.31626 9.20793 8.48794 9.25711C8.68885 9.19447 8.68885 8.73048 8.48794 8.6683Z" fill="#AD9050"/>
<path fill-rule="evenodd" clip-rule="evenodd" d="M11.471 7.82138C11.3842 7.83251 11.4027 7.94898 11.2867 7.93181C11.2738 7.88355 11.2218 7.87381 11.213 7.82138C11.0835 7.86314 10.9838 7.93552 10.8084 7.93181C10.8905 7.78751 11.1977 7.53602 11.3239 7.67429C11.3791 7.61907 11.3795 7.50911 11.5081 7.52674C11.5382 7.61907 11.6083 7.67151 11.618 7.78426C11.7396 7.69007 11.9122 7.78983 12.0598 7.78426C12.0356 7.94666 11.4858 8.04456 11.471 7.82138ZM10.072 8.18933C9.90403 8.32157 9.64048 8.53547 9.37275 8.44731C9.52216 8.27749 9.86088 8.29744 9.88826 8.00558C10.0001 7.96475 10.1676 8.02878 10.3666 8.00558C9.74581 7.84643 10.136 6.78991 10.6242 6.90127C10.3244 7.07341 9.94254 7.80746 10.5875 7.89515C10.5137 8.09142 10.355 8.20232 10.072 8.18933ZM8.76074 8.2283C8.72687 8.24454 8.68418 8.2515 8.6401 8.23758C8.59695 8.22181 8.5654 8.18283 8.55658 8.14478C8.54637 8.10627 8.5473 8.06869 8.56215 8.03435C8.5937 8.09978 8.62433 8.1536 8.66609 8.1652C8.70413 8.17958 8.76028 8.16938 8.82338 8.16242C8.32273 7.75827 8.37655 8.09374 8.23178 8.22645C8.13388 7.55968 8.73244 7.89933 8.84519 8.1601C8.84983 8.16984 8.85447 8.17958 8.85772 8.18933C8.84936 8.18283 8.8424 8.17773 8.83452 8.17123C8.8141 8.19536 8.78997 8.21438 8.76074 8.2283ZM8.63685 9.40407C8.50322 9.40268 8.34593 9.42495 8.3051 9.3303C8.28793 9.7581 7.53254 9.96597 7.42164 9.47785C7.11912 9.89081 6.49782 9.68108 6.2069 9.40407C6.13823 9.44537 6.02965 9.44769 6.06027 9.58828C6.04311 9.64814 6.26072 9.64814 6.24402 9.58828C6.36837 9.72702 6.02362 9.77991 5.91272 9.69871C5.91876 9.65556 5.90437 9.63282 5.87607 9.62494C5.90623 9.29967 6.34146 9.20223 6.53819 9.44073C6.43194 9.2194 6.7289 9.10804 6.75906 8.96235C6.77993 8.86444 6.45699 8.64173 6.75906 8.5944C6.45514 8.3856 6.8087 8.05941 6.68574 7.89515C6.57531 7.91928 6.72101 7.97357 6.68574 8.04224C6.57717 8.04317 6.5368 7.89654 6.61243 7.82138C6.84768 7.80375 6.90382 7.96986 6.79618 8.11555C6.92702 8.12019 7.09267 8.08957 7.09035 8.22645C7.20681 8.03574 7.32838 7.85061 7.56919 7.78426C7.41747 7.71512 7.22676 7.68543 7.12747 7.56386C6.94651 6.94581 7.71999 6.87853 7.60585 7.37965C7.46897 7.39404 7.53764 7.20287 7.42164 7.19544C7.31539 7.21215 7.25414 7.2734 7.2379 7.37965C7.46062 7.72487 8.08702 7.57221 8.19466 8.04224C8.2225 8.16195 8.19745 8.34662 8.15801 8.52062C8.6698 8.24408 9.086 9.04494 8.63685 9.40407ZM1.67967 11.0977C1.61147 11.2735 1.74278 11.4471 1.64302 11.6127C1.38179 11.6443 1.50753 11.1218 1.53212 10.9872C2.08196 11.0401 2.38031 10.572 2.59978 10.1771C2.307 10.2885 1.99241 11.0225 1.53212 10.8763C0.994348 10.7056 1.82676 9.96644 2.04762 9.8458C1.66297 9.85044 1.39849 9.73444 1.3855 9.36742C1.49964 9.23611 1.6922 9.18367 1.901 9.14655C1.95622 9.20641 1.95622 9.41799 1.901 9.47785C1.79892 9.4565 1.69406 9.43887 1.71679 9.29364C1.61471 9.30246 1.60404 9.40222 1.56924 9.47785C1.65554 9.72284 1.99797 9.7117 2.26849 9.77249C2.133 10.1697 1.43375 10.1813 1.56924 10.7293C1.98638 10.6801 2.14321 10.371 2.37892 10.1404C2.20353 10.21 2.11212 10.3636 1.86388 10.3613C1.96457 10.1553 2.28565 10.1701 2.34226 9.91957C2.38124 9.7479 2.16037 9.71495 2.26849 9.58828C2.48888 9.57854 2.58354 9.86482 2.45269 9.99335C2.5158 10.0653 2.71068 10.005 2.74687 10.1033C2.57287 10.6165 2.25735 10.9882 1.67967 11.0977ZM1.86388 9.62494C2.03417 9.46718 2.16037 9.04169 1.82676 8.96235C1.68942 8.99668 1.65833 9.13681 1.49547 9.14655C1.76598 8.31739 2.74316 9.49548 1.86388 9.62494ZM12.5748 6.90127C12.3428 6.937 12.3702 6.71335 12.1702 6.71753C12.1298 6.77738 12.0342 6.96994 12.1331 7.04836C12.2876 6.87436 12.3962 7.18663 12.5748 7.12213C12.823 7.47756 12.4272 7.76523 12.3544 7.89515C12.5873 8.02043 12.5632 7.56525 12.9061 7.7476C12.7103 8.0144 12.9729 8.08261 12.9432 8.29976C12.7947 8.39256 12.6973 8.16706 12.6486 8.04224C12.3641 8.14618 12.1164 7.95176 12.0598 7.71095C12.1516 7.67986 12.2574 7.66269 12.3906 7.67429C12.4407 7.61119 12.5233 7.39218 12.4282 7.30634C12.43 7.44322 12.3377 7.37548 12.2069 7.37965C11.7545 7.25623 12.1577 6.42521 11.9048 6.37788C11.8482 6.70036 11.8421 7.27247 11.8389 7.63717C11.5327 7.50215 11.2394 7.3532 11.0659 7.08548C11.187 8.29837 9.72818 7.45621 10.6242 7.04836C10.6942 7.1625 10.8501 7.1908 10.8821 7.343C10.7578 7.46967 10.5889 7.26504 10.5137 7.343C10.4901 7.47709 10.5388 7.5388 10.5875 7.60051C11.0724 7.62186 10.9012 6.99268 10.6979 6.82749C10.5624 6.77413 10.4079 6.82146 10.33 6.79084C10.3059 6.64236 10.3782 6.39969 10.2929 6.31246C10.1773 6.94535 9.96899 7.48452 9.7407 8.00558C9.60382 8.06498 9.37879 8.03574 9.18855 8.04224C8.54684 7.57963 7.86801 7.15461 7.12747 6.79084C6.75256 7.64413 6.01063 8.32296 5.80229 9.22033C5.18425 8.6974 4.69659 8.04363 4.14582 7.45343C4.07947 7.85525 3.88969 8.16845 3.66744 8.55728C3.53845 8.78371 3.27582 9.4978 3.04151 9.55162C2.38866 9.70057 2.14042 8.65379 1.64302 8.44731C1.07323 9.51914 1.17392 11.5232 1.56924 12.7166C1.95993 11.3037 2.61509 10.1557 4.36668 10.1033C4.04699 10.0184 3.90547 9.75486 3.74075 9.5145C3.69342 9.70428 3.84747 9.82306 3.77787 9.91957C3.65816 9.94092 3.60665 9.89405 3.52035 9.88245C3.49715 10.1511 3.20855 10.0054 3.04151 10.0667C3.21736 9.96644 3.35656 9.65417 3.55701 9.69871C3.56582 9.48667 3.53798 9.23843 3.70409 9.18321C4.04096 9.38319 4.02982 10.1093 4.62467 9.95669C4.97174 9.86668 5.27705 8.71364 4.77175 8.55728C4.12355 8.35729 4.0507 9.4913 4.51377 9.47785C4.63116 9.43655 4.79078 9.08252 4.62467 8.99947C4.54811 9.15862 4.59033 9.08438 4.62467 9.25699C4.53279 9.28807 4.427 9.30524 4.29291 9.29364C4.41355 9.09505 4.45252 8.81526 4.80841 8.85192C5.18657 9.50337 4.02286 9.98778 4.03539 9.1099C3.93981 9.14609 3.78854 9.17439 3.74075 9.07278C3.76349 8.63337 3.85397 8.03899 4.33003 7.8585C4.12169 8.27702 3.94398 8.49325 3.96161 8.99947C4.16252 8.69694 4.28641 8.31739 4.88172 8.41019C5.42831 8.77072 5.16986 9.99706 4.58755 10.1033C5.31324 10.0254 5.96748 10.0773 6.53819 10.1033C7.97148 10.1687 8.48605 9.7131 9.18855 9.03612C10.0214 8.23387 12.2454 7.71373 13.3478 8.66817C13.1168 8.05291 12.7864 7.53695 12.5748 6.90127Z" fill="#AD9050"/>
<path fill-rule="evenodd" clip-rule="evenodd" d="M16.7339 4.80314C17.8196 4.10389 19.1787 3.38516 20.6287 3.30257C20.5159 3.25803 20.3892 3.23204 20.2486 3.22323C19.4306 3.32345 18.6845 3.52622 17.9992 3.79858C17.6196 3.96145 17.2368 4.14565 16.8689 4.33589C16.1223 4.75164 15.4579 5.24487 14.8593 5.7599C14.3893 6.16544 14.0032 6.62433 13.7012 7.17649C13.7564 7.36255 13.8274 7.58063 13.8677 7.70312C14.5146 6.6415 15.482 5.6091 16.7339 4.80314Z" fill="white"/>
<path fill-rule="evenodd" clip-rule="evenodd" d="M21.7397 3.91978C21.3796 3.7495 21.0005 3.77409 20.5987 3.80935C18.152 4.02418 16.3489 5.78459 15.8501 7.96909C14.943 8.18021 14.4804 9.81487 15.6659 10.1401C15.5365 9.87473 15.1537 9.66964 15.1138 9.25715C15.0228 8.31106 16.4761 7.77885 16.9911 8.59456C17.0157 8.77877 16.9572 8.87945 16.9545 9.03582C17.4983 8.61869 16.8385 7.91016 16.2914 7.89485C16.47 5.8644 18.0073 4.76983 19.5876 4.14111C18.6671 4.80231 17.4208 5.71081 17.3224 7.08518C17.2737 7.77143 17.6296 8.40154 17.5799 9.11006C17.515 10.0459 15.9773 10.2121 16.071 9.03582C16.2148 8.86089 16.5155 8.84233 16.6965 8.70499C16.29 8.41314 15.8121 8.8609 15.7764 9.22003C15.7281 9.71094 16.1838 10.0385 16.5127 10.1035C17.2514 10.2501 17.8045 9.69192 17.9483 9.22003C18.1205 8.65534 17.7252 7.81736 18.2425 7.60068C18.2309 7.48885 18.1056 7.38028 18.2059 7.26938C18.3144 7.1571 18.526 7.14782 18.758 7.15895C18.0309 6.73996 17.8068 7.74405 17.6904 8.29992C17.1206 6.40078 18.2912 5.4004 19.2735 4.58237C19.9635 4.00701 20.6405 3.79868 21.7397 3.91978Z" fill="white"/>
<path fill-rule="evenodd" clip-rule="evenodd" d="M20.267 3.22027C17.9772 3.49635 16.2418 4.56819 14.8591 5.75973C14.3886 6.16527 14.0021 6.62416 13.7005 7.17725C13.3465 6.52487 13.2435 6.30493 12.9785 5.90728C14.7631 4.39048 16.8868 2.90568 20.267 3.22027Z" fill="#373535"/>
<path d="M2.23047 8.04224C2.23047 8.04224 2.73205 6.12825 4.36579 5.75983" stroke="#363535" stroke-width="4" stroke-miterlimit="10"/>
</svg>
