<svg width="186" height="122" viewBox="0 0 186 122" fill="none" xmlns="http://www.w3.org/2000/svg">
  <path d="M147.631 73.3692L147.271 76.8072C146.334 79.0464 145.397 81.2842 144.461 83.5205C144.135 84.3058 143.806 85.0898 143.477 85.8722C143.327 86.2384 143.115 86.5757 142.85 86.869C142.837 86.8888 142.82 86.9053 142.799 86.9173C142.779 86.9293 142.756 86.9364 142.732 86.9382C142.653 86.9382 142.624 86.8324 142.618 86.7531C142.573 85.9052 142.472 85.0611 142.315 84.2264C141.438 80.1964 136.76 78.7195 133.09 78.8111C131.621 78.8334 130.175 79.1685 128.846 79.7936C126.93 80.7213 126.183 83.3008 126.081 83.3964L126 83.728L124.686 89.2024C124.409 90.423 124.198 91.0679 123.07 91.3934C123.034 91.4056 121.911 92.0037 121.874 92.0037C121.439 92.1258 122.631 91.8633 122.159 91.784L120.664 91.55L120.027 91.4036L110.736 89.2045C111.096 89.2655 111.465 89.3326 111.839 89.4079L113.995 89.9226L113.426 87.1884C111.943 78.6768 114.4 70.9545 118.587 66.7617C119.689 65.6591 120.237 65.3763 121.522 64.6419L122.245 66.3528C122.245 66.3528 129.633 68.556 131.375 61.7959C132.079 61.8569 133.431 61.8468 134.129 61.9993C137.766 62.762 141.051 64.7007 143.477 67.5164C143.69 67.7606 143.9 68.0128 144.108 68.2691L144.217 68.4034C144.346 68.5641 144.482 68.7289 144.61 68.8937L144.702 69.0239C145.765 70.4119 146.743 71.863 147.631 73.3692Z" fill="#373A40"/>
  <path d="M59.8374 37.7858C61.0092 31.927 65.9852 26.2512 80.197 24.9513C111.786 22.0645 94.7099 13.3556 104.995 3.82471C115.281 -5.70613 154.171 9.9745 143.998 34.4638C133.824 58.9531 167.409 31.7724 181.633 62.7919C183.693 67.2932 184.686 72.21 184.532 77.1583C184.352 82.3865 183.006 87.5086 180.591 92.1493C176.049 101.023 172.254 105.871 163.354 109.498C161.553 110.231 159.667 110.891 157.698 111.477" stroke="#12B886" stroke-width="0.919518" stroke-miterlimit="10"/>
  <path d="M159.902 85.9715C159.656 88.846 157.707 89.3139 157.707 89.3139C156.059 90.2883 153.529 89.2406 153.018 87.4138C153.01 87.3943 153.006 87.3737 153.006 87.3528C152.599 85.7884 151.805 83.7784 150.739 81.5793C148.685 76.6074 146.014 71.5948 142.588 67.6299C140.162 64.8144 136.877 62.8757 133.24 62.1128C133.228 62.1128 133.222 62.1006 133.21 62.1006C128.386 60.6481 126.039 57.682 125.021 54.838C125.021 54.838 125.021 54.838 125.021 54.8258C124.586 53.0295 124.143 51.278 124.381 50.2181C124.787 48.3607 124.991 46.3528 124.484 45.946C123.848 45.413 122.696 45.8076 119.767 46.3976C117.23 46.9184 115.877 46.6234 115.572 45.0732C115.524 44.8328 115.499 44.5881 115.499 44.3429C115.486 44.4975 114.888 43.8832 114.86 44.0296C114.669 44.821 114.286 45.1383 113.452 45.4862C112.213 46.0009 111.707 47.9884 111.524 49.3128C111.332 50.7226 111.967 52.6674 112.47 53.9918C111.827 53.2574 111.09 53.3428 109.939 53.7883C109.65 53.8982 108.922 53.8677 108.346 53.6663C108.427 53.5965 108.523 53.5456 108.627 53.5178C108.812 53.4567 107.469 52.7895 107.664 52.7467C109.619 52.3053 110.716 50.6758 110.484 49.2416C109.908 45.6306 110.675 41.383 113.114 38.5695C115.804 35.4753 120.192 34.8324 123.907 36.2483C126.824 37.357 129.582 39.6314 130.593 42.6646C130.593 42.6768 130.593 42.689 130.606 42.7012C130.734 43.0869 130.833 43.4822 130.901 43.8832C131.273 46.1392 130.477 48.4258 130.036 50.6554C129.877 51.459 130.28 52.3358 130.366 52.9726C130.856 56.7971 135.27 57.8773 138.763 59.5007C146.105 62.9204 152.1 68.7671 156.132 75.8771C158.81 80.5845 159.766 83.7947 159.902 85.9715Z" fill="#12B886"/>
  <path d="M121.197 63.8838C121.118 63.9265 121.038 63.9692 120.965 64.018C119.647 64.7738 118.434 65.7015 117.36 66.7766C113.176 70.9694 110.718 78.6917 112.201 87.2033L112.771 89.9232" stroke="#141517" stroke-width="0.919518" stroke-miterlimit="10"/>
  <path d="M158.222 120.996C158.223 114.641 157.674 108.299 156.58 102.04C155.849 97.7926 154.842 93.5978 153.565 89.4818C152.798 86.9816 151.861 84.2841 150.746 81.5764C149.711 79.0424 148.515 76.5772 147.165 74.1958C145.857 71.8639 144.326 69.6639 142.594 67.6269C140.168 64.8114 136.884 62.8725 133.246 62.1098C132.549 61.9619 131.843 61.856 131.133 61.7925" stroke="#141517" stroke-width="0.919518" stroke-miterlimit="10"/>
  <path d="M83.029 65.696L82.9253 65.6777C81.6829 65.4696 80.4082 65.5766 79.2179 65.9887C78.0276 66.4011 76.9598 67.1056 76.1123 68.0375L69.1549 75.6174L68.3411 76.5125C68.2905 76.5674 68.2429 76.6252 68.1987 76.6854" stroke="#141517" stroke-width="0.919518" stroke-miterlimit="10"/>
  <path d="M72.9814 78.6644L76.7999 74.4289L76.806 74.4229" stroke="#141517" stroke-width="0.919518" stroke-miterlimit="10"/>
  <path d="M106.198 100.542L124.159 106.871C125.889 107.48 127.729 107.71 129.556 107.545C131.382 107.379 133.152 106.823 134.744 105.912C136.336 105.002 137.714 103.76 138.783 102.27C139.852 100.779 140.588 99.0767 140.94 97.2768L145.19 75.5826C145.407 74.4686 145.397 73.3223 145.16 72.2122C144.923 71.1022 144.464 70.0517 143.811 69.1236C143.628 68.8622 143.43 68.6122 143.216 68.375" stroke="#141517" stroke-width="0.919518" stroke-miterlimit="10"/>
  <path d="M94.3111 99.6674C92.0245 101.211 90.3441 105.901 89.451 108.979C89.2981 109.495 88.9817 109.947 88.5496 110.269C88.1175 110.59 87.5931 110.763 87.0546 110.761C86.69 110.761 86.3298 110.681 85.9988 110.529C85.4908 110.29 85.078 109.888 84.8272 109.387C84.5762 108.885 84.5015 108.313 84.6154 107.764C86.1107 100.453 91.3877 86.0191 109.516 89.2008C109.878 89.2618 110.246 89.3289 110.618 89.4042L112.771 89.9229L118.806 91.3938L120.434 91.7864C121.051 91.9361 121.698 91.9129 122.303 91.7193C122.341 91.7119 122.378 91.7018 122.413 91.6887C122.971 91.4975 123.471 91.1688 123.867 90.7326C124.264 90.2966 124.544 89.7677 124.682 89.1946L126.055 83.4823L126.134 83.1507L127.932 75.6826" stroke="#141517" stroke-width="0.919518" stroke-miterlimit="10"/>
  <path d="M85.4703 76.2585H79.3185C78.617 76.2585 77.9445 75.9798 77.4485 75.484C76.9525 74.9881 76.6738 74.3153 76.6738 73.6139C76.6738 72.9124 76.9525 72.2399 77.4485 71.7439C77.9445 71.2479 78.617 70.9692 79.3185 70.9692H88.0335" stroke="#141517" stroke-width="0.919518" stroke-miterlimit="10"/>
  <path d="M80.7485 76.2568C80.661 77.335 80.25 78.1325 79.6438 78.6838C78.0815 80.1078 75.2191 79.9451 73.2275 78.9706" stroke="#141517" stroke-width="0.919518" stroke-miterlimit="10"/>
  <path d="M69.163 75.6151C67.3993 73.4831 67.7594 70.5923 69.1285 68.3586C73.012 62.0196 81.8858 63.2362 87.6409 65.8706C92.3036 67.9986 96.3885 71.1965 100.366 74.3864C102.308 75.9446 104.217 77.568 106.062 79.2687C106.4 79.5753 106.804 79.8011 107.243 79.9289C107.681 80.0568 108.143 80.0835 108.594 80.0072C109.044 79.9309 109.471 79.7533 109.843 79.488C110.215 79.2228 110.522 78.8765 110.741 78.4754C111.758 76.5977 112.858 74.5491 113.066 73.9815" stroke="#141517" stroke-width="0.919518" stroke-miterlimit="10"/>
  <path d="M79.646 78.6836C79.646 78.6836 88.8229 83.6616 95.6399 90.8143" stroke="#141517" stroke-width="0.919518" stroke-miterlimit="10"/>
  <path d="M92.0713 102.368C91.0541 104.105 91.9289 106.656 93.8513 107.266C96.3066 108.058 98.9024 108.319 101.466 108.029C104.263 107.704 106.122 105.395 107.347 102.75C107.436 102.553 107.482 102.34 107.483 102.124C107.484 101.908 107.439 101.695 107.352 101.498C107.265 101.3 107.137 101.123 106.977 100.978C106.817 100.833 106.629 100.724 106.424 100.657C106.053 100.535 105.651 100.557 105.296 100.719C104.942 100.881 104.662 101.17 104.511 101.53C104.104 102.469 103.476 103.645 102.642 104.174" stroke="#141517" stroke-width="0.919518" stroke-miterlimit="10"/>
  <path d="M96.8621 102.042C96.8621 102.042 94.3497 104.744 96.3311 107.604C96.4182 107.724 96.5207 107.832 96.6363 107.925" stroke="#141517" stroke-width="0.919518" stroke-miterlimit="10"/>
  <path d="M100.176 102.488C100.176 102.488 97.853 107.716 100.833 108.098" stroke="#141517" stroke-width="0.919518" stroke-miterlimit="10"/>
  <path d="M182.658 121H38.7822" stroke="#141517" stroke-width="0.919518" stroke-miterlimit="10"/>
  <path d="M95.3831 111.147H81.035C80.8893 112.502 80.2477 113.754 79.2336 114.664C78.2195 115.574 76.9047 116.076 75.5423 116.074H27.3164C27.3191 117.379 27.8384 118.629 28.7608 119.551C29.6829 120.473 30.933 120.993 32.2375 120.996H95.3831C96.6896 120.995 97.9427 120.477 98.8679 119.555C99.7933 118.632 100.316 117.381 100.32 116.074V112.767C100.32 112.335 100.149 111.921 99.8438 111.616C99.5386 111.311 99.1247 111.139 98.693 111.139L95.3831 111.147Z" stroke="#141517" stroke-width="0.919518" stroke-miterlimit="10"/>
  <path d="M73.2275 78.9701C73.6503 79.555 73.9544 80.2172 74.1226 80.919L80.9193 109.265C81.0695 109.881 81.1087 110.518 81.0353 111.147C80.8896 112.502 80.248 113.754 79.2339 114.664C78.2198 115.574 76.905 116.076 75.5426 116.074H26.4216C25.1811 116.074 23.9766 115.656 23.0027 114.888C22.0287 114.119 21.3419 113.045 21.053 111.839L14.2685 83.4945C14.0734 82.6828 14.0651 81.8377 14.2439 81.0223C14.4227 80.207 14.784 79.4429 15.3009 78.7874C15.8177 78.132 16.4764 77.6022 17.2275 77.2383C17.9785 76.8741 18.8024 76.6852 19.6371 76.6856H68.754C69.5608 76.6839 70.3583 76.8605 71.089 77.2027C71.8198 77.5449 72.4659 78.0441 72.9814 78.665L73.2275 78.9701Z" stroke="#141517" stroke-width="0.919518" stroke-miterlimit="10"/>
  <path d="M65.5338 43.6934C65.2205 43.3252 64.8909 42.9712 64.5471 42.6274C62.618 40.6915 60.3253 39.1558 57.8009 38.1083C55.2765 37.0611 52.57 36.5228 49.8369 36.5244H24.0863C21.354 36.5232 18.6481 37.0607 16.1235 38.1059C13.5989 39.1511 11.3052 40.6836 9.37319 42.6158C7.4412 44.548 5.90895 46.8419 4.86399 49.3665C3.81904 51.8913 3.28187 54.597 3.28321 57.3295V57.478C3.28059 59.4165 3.77434 61.3237 4.71742 63.0175C5.7772 64.0967 7.04219 64.9532 8.43793 65.5362C9.83366 66.1195 11.3319 66.4173 12.8446 66.4128H38.0906C38.861 66.4128 39.5999 66.7188 40.1447 67.2636C40.6895 67.8084 40.9957 68.5472 40.9957 69.3178C40.9967 70.0893 41.3039 70.8285 41.8497 71.3737C42.3955 71.9187 43.1354 72.2249 43.9068 72.2249H43.9699L50.203 72.0662C50.203 72.0052 50.1908 71.9503 50.1908 71.8953C49.6519 71.71 49.1845 71.3609 48.8537 70.8971C48.5229 70.4331 48.3453 69.8775 48.3457 69.3077V69.1734C48.3463 68.403 48.6525 67.6645 49.1971 67.1197C49.7419 66.5751 50.4805 66.2688 51.2507 66.2684H57.3964C60.4178 66.2684 63.3155 65.0681 65.452 62.9317C67.5884 60.7952 68.7887 57.8975 68.7887 54.8761C68.7993 50.9134 67.6694 47.0313 65.5338 43.6934ZM20.9412 55.7468C19.956 55.7472 18.9927 55.4553 18.1735 54.9083C17.3541 54.361 16.7155 53.5831 16.3383 52.6729C15.9614 51.7628 15.8627 50.7613 16.055 49.795C16.2472 48.8287 16.7216 47.9411 17.4186 47.2445C18.1153 46.548 19.0031 46.074 19.9694 45.8819C20.9357 45.6901 21.9372 45.7892 22.8474 46.1667C23.7573 46.5443 24.5349 47.1831 25.0817 48.0027C25.6285 48.8222 25.92 49.7856 25.9192 50.7708C25.9176 52.0903 25.3925 53.3554 24.4594 54.2882C23.526 55.2211 22.2607 55.7456 20.9412 55.7468ZM37.1894 55.7468C36.2044 55.7464 35.2416 55.4539 34.4227 54.9062C33.6039 54.3586 32.9659 53.5805 32.5896 52.6701C32.213 51.7599 32.115 50.7584 32.3076 49.7923C32.5003 48.8264 32.9753 47.9392 33.6723 47.2431C34.3692 46.547 35.2568 46.0732 36.2231 45.8817C37.1894 45.6901 38.1907 45.7896 39.1005 46.1671C40.0102 46.5447 40.7878 47.1837 41.3344 48.0031C41.881 48.8226 42.1723 49.7858 42.1715 50.7708C42.1715 51.4247 42.0425 52.0722 41.7921 52.6764C41.5417 53.2806 41.1747 53.8293 40.7119 54.2915C40.2493 54.7537 39.7 55.12 39.0956 55.3696C38.4912 55.6195 37.8435 55.7476 37.1894 55.7468ZM52.6646 55.7468C51.6796 55.746 50.7171 55.4531 49.8985 54.9052C49.0799 54.3574 48.4423 53.579 48.0662 52.6687C47.69 51.7585 47.5922 50.757 47.785 49.7911C47.9781 48.8252 48.4531 47.9382 49.1501 47.2425C49.8472 46.5465 50.7348 46.073 51.7011 45.8815C52.6672 45.6903 53.6685 45.7896 54.5783 46.1674C55.4878 46.5449 56.2652 47.1839 56.8116 48.0033C57.3582 48.8228 57.6495 49.7858 57.6487 50.7708C57.6487 51.4249 57.5197 52.0726 57.2691 52.6768C57.0187 53.2812 56.6513 53.8301 56.1885 54.2923C55.7254 54.7545 55.176 55.1206 54.5714 55.3703C53.9666 55.6199 53.3186 55.7478 52.6646 55.7468Z" fill="#96F2D7"/>
  <path d="M68.7885 54.8779C68.7885 57.8993 67.5883 60.797 65.4518 62.9335C63.3154 65.0699 60.4177 66.2702 57.3963 66.2702H51.2546C50.4846 66.2706 49.7464 66.5766 49.2018 67.121C48.6572 67.6651 48.3506 68.4032 48.3496 69.1732V69.3075C48.3492 69.8773 48.5268 70.4328 48.8576 70.8969C49.1884 71.3607 49.6559 71.7098 50.1947 71.8951C50.4785 71.9938 50.7772 72.0432 51.0776 72.0416L50.207 72.066L43.9697 72.2247H43.9026C43.1315 72.2247 42.3921 71.9187 41.8463 71.3741C41.3004 70.8295 40.9931 70.0907 40.9914 69.3197C40.9914 68.5491 40.6855 67.8102 40.1405 67.2654C39.5957 66.7206 38.8568 66.4146 38.0864 66.4146H12.8444C9.823 66.4146 6.92534 65.2144 4.78886 63.0779C2.6524 60.9415 1.45215 58.0438 1.45215 55.0224V54.8739C1.45241 52.1432 1.99051 49.4396 3.03569 46.9168C4.08087 44.3942 5.6127 42.1021 7.54369 40.1716C9.47468 38.241 11.767 36.7095 14.2898 35.6649C16.8126 34.6203 19.5166 34.0826 22.2471 34.083H47.9895C53.5048 34.0834 58.7943 36.2744 62.6947 40.174C66.5949 44.0736 68.7869 49.3625 68.7885 54.8779Z" stroke="#141517" stroke-width="0.919518" stroke-miterlimit="10"/>
  <path d="M133.24 62.1037C133.228 62.1037 133.222 62.0915 133.21 62.0915C128.386 60.6389 126.038 57.6729 125.021 54.8289C125.021 54.8289 125.021 54.8289 125.021 54.8167C124.226 52.5993 124.244 50.453 124.531 49.1714C124.703 48.4926 124.812 47.7995 124.857 47.1005C124.924 45.1211 123.471 45.6052 119.317 46.4332C117.409 46.8197 116.188 46.0955 115.578 45.0661C115.519 44.9764 115.467 44.8818 115.423 44.7834C115.139 44.1842 115.021 43.5194 115.082 42.8589" stroke="#141517" stroke-width="0.919518" stroke-miterlimit="10"/>
  <path d="M112.691 54.2595C112.618 54.1557 112.543 54.0561 112.469 53.9767C111.827 53.2423 111.09 53.3278 109.939 53.7733C109.65 53.8831 108.922 53.8526 108.346 53.6512C107.862 53.4783 107.5 53.1793 107.664 52.7317C107.707 52.6396 107.77 52.5586 107.848 52.4947C107.927 52.4308 108.019 52.3859 108.118 52.3635C108.31 52.3151 108.504 52.2762 108.7 52.2475C110.675 51.8061 110.234 49.5195 109.994 48.0853C109.412 44.4764 110.185 40.2287 112.648 37.4152C115.362 34.321 119.801 33.6761 123.55 35.092C126.848 36.337 129.95 39.0386 130.593 42.6496C130.593 42.6618 130.593 42.674 130.606 42.6862C130.618 42.6984 130.606 42.7167 130.606 42.7289C130.986 44.985 130.606 47.4303 130.164 49.6619C129.9 50.9842 129.999 52.0644 130.368 52.9575C131.521 55.8809 135.413 56.9001 138.55 58.3465C145.973 61.7662 152.021 67.6129 156.098 74.7228C159.316 80.362 160.079 83.8305 159.902 85.9707C159.656 88.8452 157.707 89.3131 157.707 89.3131C156.059 90.2875 153.526 89.2398 153.018 87.413C153.01 87.3935 153.006 87.3727 153.006 87.352C152.599 85.7876 151.805 83.7777 150.739 81.5785" stroke="#141517" stroke-width="0.919518" stroke-miterlimit="10"/>
  <path d="M115.073 42.8589C115.073 43.9473 114.561 45.0214 113.446 45.4791C112.193 45.9958 111.684 47.3568 111.501 48.6811C111.245 50.6205 111.663 52.5887 112.683 54.2572C113.629 55.8277 115.169 57.559 117.35 57.559C121.345 57.559 123.058 55.6325 123.058 55.6325" stroke="#141517" stroke-width="0.919518" stroke-miterlimit="10"/>
  <path d="M119.221 49.3062C119.597 49.3062 119.901 49.0021 119.901 48.6267C119.901 48.2516 119.597 47.9473 119.221 47.9473C118.846 47.9473 118.542 48.2516 118.542 48.6267C118.542 49.0021 118.846 49.3062 119.221 49.3062Z" fill="#141517"/>
  <path d="M113.245 49.7027C113.62 49.7027 113.924 49.3985 113.924 49.0232C113.924 48.6481 113.62 48.3438 113.245 48.3438C112.87 48.3438 112.565 48.6481 112.565 49.0232C112.565 49.3985 112.87 49.7027 113.245 49.7027Z" fill="#141517"/>
  <path d="M116.176 47.9873C116.176 47.9873 115.836 50.6706 115.973 51.0388C116.109 51.407 116.959 50.9859 116.959 50.9859" stroke="#141517" stroke-width="0.919518" stroke-miterlimit="10"/>
  <path d="M117.436 53.3335C118.89 53.8685 120.391 53.187 120.831 51.8789" stroke="#141517" stroke-width="0.919518" stroke-miterlimit="10"/>
  <path d="M122.738 49.6081C123.725 48.2113 123.365 46.26 121.934 45.2491C120.504 44.2385 118.544 44.5514 117.558 45.9481C116.571 47.3447 116.931 49.2962 118.361 50.3069C119.792 51.3175 121.752 51.0047 122.738 49.6081Z" stroke="#141517" stroke-width="0.919518" stroke-miterlimit="10"/>
  <path d="M114.793 50.008C115.78 48.6112 115.42 46.6597 113.989 45.649C112.559 44.6384 110.599 44.9513 109.612 46.348C108.626 47.7446 108.985 49.6961 110.416 50.7068C111.847 51.7175 113.806 51.4046 114.793 50.008Z" stroke="#141517" stroke-width="0.919518" stroke-miterlimit="10"/>
  <path d="M112.146 46.0209C112.712 46.0193 113.256 46.2314 113.671 46.6147C114.086 46.9982 114.341 47.5242 114.384 48.0878C114.407 48.3677 114.373 48.6492 114.284 48.9155C114.195 49.1818 114.054 49.4276 113.867 49.6379C113.679 49.8511 113.45 50.024 113.193 50.1463C112.937 50.2688 112.658 50.3379 112.374 50.3499H112.26C111.695 50.3516 111.15 50.1392 110.735 49.7553C110.32 49.3714 110.065 48.8447 110.023 48.281C110 48.0011 110.035 47.7193 110.124 47.453C110.213 47.1868 110.355 46.941 110.541 46.7309C110.729 46.5183 110.958 46.3458 111.215 46.2233C111.471 46.101 111.749 46.0315 112.032 46.0188H112.146V46.0209ZM112.146 45.5591H112.01C111.667 45.5743 111.331 45.6586 111.021 45.8063C110.711 45.9542 110.434 46.1627 110.206 46.4196C109.979 46.6765 109.805 46.9766 109.696 47.3019C109.586 47.6272 109.543 47.9712 109.569 48.3136C109.624 48.9918 109.932 49.6245 110.431 50.0865C110.931 50.5485 111.586 50.8058 112.266 50.8077H112.403C112.746 50.7922 113.082 50.7082 113.392 50.5603C113.702 50.4126 113.979 50.2039 114.206 49.9471C114.434 49.6902 114.608 49.3901 114.717 49.0649C114.827 48.7396 114.87 48.3953 114.844 48.0532C114.789 47.3749 114.481 46.7422 113.981 46.2802C113.482 45.8183 112.827 45.5609 112.146 45.5591Z" fill="white"/>
  <path d="M117.01 47.9443L115.342 48.0298" stroke="#141517" stroke-width="0.919518" stroke-miterlimit="10"/>
  <path opacity="0.53" d="M122.341 49.3277C123.177 48.145 122.873 46.4923 121.661 45.6366C120.45 44.781 118.791 45.0461 117.955 46.2288C117.119 47.4118 117.424 49.0643 118.635 49.9201C119.846 50.7758 121.506 50.5107 122.341 49.3277Z" fill="white"/>
  <path opacity="0.53" d="M114.396 49.7277C115.231 48.545 114.927 46.8923 113.716 46.0366C112.504 45.1808 110.845 45.4461 110.009 46.6288C109.173 47.8118 109.478 49.4643 110.689 50.3199C111.901 51.1758 113.56 50.9105 114.396 49.7277Z" fill="white"/>
  <path d="M118.54 57.5586L122.245 66.3591C122.245 66.3591 129.391 68.2816 131.128 61.5194" stroke="#141517" stroke-width="0.919518" stroke-miterlimit="10"/>
  <path d="M48.2522 103.17C51.05 102.288 52.5145 99.024 51.5232 95.8801C50.5319 92.7363 47.4602 90.9027 44.6626 91.7848C41.8648 92.6671 40.4003 95.9308 41.3916 99.0746C42.3827 102.218 45.4544 104.052 48.2522 103.17Z" fill="#96F2D7"/>
  <path d="M117.551 120.995C117.472 113.832 116.209 106.755 115.627 103.866" stroke="#141517" stroke-width="0.919518" stroke-miterlimit="10"/>
</svg>